<svg width="468" height="110" viewBox="0 0 468 110" fill="none" xmlns="http://www.w3.org/2000/svg">
<path d="M98.5938 79V78.3203L99.8672 78.2188V68.4141L98.5938 68.3125V67.625H107.016V70.1172H106.219L106.141 68.4062H100.805V72.875H105.438V73.6641H100.805V78.2188L102.078 78.3203V79H98.5938ZM111.789 79.1641C111.065 79.1641 110.427 78.9896 109.875 78.6406C109.323 78.2865 108.891 77.7995 108.578 77.1797C108.266 76.5547 108.109 75.8359 108.109 75.0234V74.5938C108.109 73.7865 108.266 73.0677 108.578 72.4375C108.891 71.8021 109.312 71.3021 109.844 70.9375C110.38 70.5729 110.977 70.3906 111.633 70.3906C112.326 70.3906 112.917 70.5391 113.406 70.8359C113.901 71.1328 114.279 71.5521 114.539 72.0938C114.805 72.6302 114.938 73.263 114.938 73.9922V74.7891H109.078L109.062 75.1328C109.068 75.7578 109.182 76.3151 109.406 76.8047C109.635 77.2943 109.953 77.6797 110.359 77.9609C110.771 78.2422 111.247 78.3828 111.789 78.3828C112.32 78.3828 112.786 78.2995 113.188 78.1328C113.594 77.9609 113.951 77.7292 114.258 77.4375L114.656 78.0781C114.328 78.3906 113.93 78.651 113.461 78.8594C112.997 79.0625 112.44 79.1641 111.789 79.1641ZM109.141 74.0078H114V73.7734C114 73.2786 113.904 72.8359 113.711 72.4453C113.523 72.0495 113.253 71.7396 112.898 71.5156C112.549 71.2917 112.128 71.1797 111.633 71.1797C111.185 71.1797 110.781 71.3021 110.422 71.5469C110.062 71.7865 109.768 72.1172 109.539 72.5391C109.315 72.9557 109.177 73.4297 109.125 73.9609L109.141 74.0078ZM119.094 79.1641C118.292 79.1641 117.664 78.9505 117.211 78.5234C116.758 78.0964 116.531 77.5182 116.531 76.7891C116.531 76.2682 116.682 75.8125 116.984 75.4219C117.286 75.026 117.714 74.7188 118.266 74.5C118.823 74.2812 119.482 74.1719 120.242 74.1719H121.992V73.2031C121.992 72.5938 121.81 72.1042 121.445 71.7344C121.086 71.3594 120.542 71.1719 119.812 71.1719C119.401 71.1719 119.031 71.2396 118.703 71.375C118.38 71.5052 118.099 71.6719 117.859 71.875L117.781 73.1641H117.008V71.3984C117.372 71.0859 117.786 70.8411 118.25 70.6641C118.714 70.4818 119.24 70.3906 119.828 70.3906C120.823 70.3906 121.589 70.6406 122.125 71.1406C122.661 71.6406 122.93 72.3333 122.93 73.2188V77.2969C122.93 77.4635 122.935 77.6302 122.945 77.7969C122.956 77.9583 122.974 78.1198 123 78.2812L124.008 78.3203V79H122.164C122.102 78.6927 122.057 78.4453 122.031 78.2578C122.01 78.0703 121.997 77.8594 121.992 77.625C121.685 78.0781 121.279 78.4479 120.773 78.7344C120.268 79.0208 119.708 79.1641 119.094 79.1641ZM119.203 78.3438C119.781 78.3438 120.328 78.1927 120.844 77.8906C121.365 77.5833 121.747 77.1771 121.992 76.6719V74.8906H120.234C119.37 74.8906 118.693 75.0781 118.203 75.4531C117.714 75.8229 117.469 76.2786 117.469 76.8203C117.469 77.2734 117.625 77.6406 117.938 77.9219C118.25 78.2031 118.672 78.3438 119.203 78.3438ZM125.227 79V78.3203L126.5 78.2188V71.3359L125.227 71.2344V70.5469H127.32L127.422 71.8359L127.43 72.0625C127.669 71.5365 127.995 71.1276 128.406 70.8359C128.818 70.5391 129.31 70.3906 129.883 70.3906C130.023 70.3906 130.172 70.4036 130.328 70.4297C130.49 70.4505 130.607 70.474 130.68 70.5L130.562 71.3594L129.695 71.3047C129.096 71.2891 128.607 71.4609 128.227 71.8203C127.846 72.1797 127.583 72.6562 127.438 73.25V78.2188L128.711 78.3203V79H125.227ZM131.562 79V78.3203L132.836 78.2188V67.6016L131.562 67.5V66.8125H133.773V78.2188L135.047 78.3203V79H131.562ZM140.039 79.1641C139.315 79.1641 138.677 78.9896 138.125 78.6406C137.573 78.2865 137.141 77.7995 136.828 77.1797C136.516 76.5547 136.359 75.8359 136.359 75.0234V74.5938C136.359 73.7865 136.516 73.0677 136.828 72.4375C137.141 71.8021 137.562 71.3021 138.094 70.9375C138.63 70.5729 139.227 70.3906 139.883 70.3906C140.576 70.3906 141.167 70.5391 141.656 70.8359C142.151 71.1328 142.529 71.5521 142.789 72.0938C143.055 72.6302 143.188 73.263 143.188 73.9922V74.7891H137.328L137.312 75.1328C137.318 75.7578 137.432 76.3151 137.656 76.8047C137.885 77.2943 138.203 77.6797 138.609 77.9609C139.021 78.2422 139.497 78.3828 140.039 78.3828C140.57 78.3828 141.036 78.2995 141.438 78.1328C141.844 77.9609 142.201 77.7292 142.508 77.4375L142.906 78.0781C142.578 78.3906 142.18 78.651 141.711 78.8594C141.247 79.0625 140.69 79.1641 140.039 79.1641ZM137.391 74.0078H142.25V73.7734C142.25 73.2786 142.154 72.8359 141.961 72.4453C141.773 72.0495 141.503 71.7396 141.148 71.5156C140.799 71.2917 140.378 71.1797 139.883 71.1797C139.435 71.1797 139.031 71.3021 138.672 71.5469C138.312 71.7865 138.018 72.1172 137.789 72.5391C137.565 72.9557 137.427 73.4297 137.375 73.9609L137.391 74.0078ZM147.93 79.1641C147.336 79.1641 146.784 79.0859 146.273 78.9297C145.768 78.7682 145.292 78.5365 144.844 78.2344L144.836 76.5H145.602L145.734 77.7422C146.036 77.9766 146.372 78.1458 146.742 78.25C147.112 78.3542 147.508 78.4062 147.93 78.4062C148.638 78.4062 149.177 78.2526 149.547 77.9453C149.917 77.638 150.102 77.2734 150.102 76.8516C150.102 76.4557 149.935 76.1068 149.602 75.8047C149.273 75.4974 148.688 75.25 147.844 75.0625C146.833 74.8438 146.102 74.5521 145.648 74.1875C145.201 73.8229 144.977 73.3151 144.977 72.6641C144.977 72.237 145.096 71.8516 145.336 71.5078C145.576 71.1641 145.914 70.8932 146.352 70.6953C146.794 70.4922 147.312 70.3906 147.906 70.3906C148.526 70.3906 149.065 70.4818 149.523 70.6641C149.982 70.8411 150.375 71.0807 150.703 71.3828L150.742 73.1172H149.977L149.867 71.8672C149.633 71.6432 149.359 71.4714 149.047 71.3516C148.734 71.2266 148.354 71.1641 147.906 71.1641C147.271 71.1641 146.781 71.3125 146.438 71.6094C146.094 71.901 145.922 72.2422 145.922 72.6328C145.922 72.888 145.974 73.112 146.078 73.3047C146.188 73.4922 146.393 73.6615 146.695 73.8125C147.003 73.9635 147.448 74.1068 148.031 74.2422C149.089 74.4818 149.854 74.8073 150.328 75.2188C150.802 75.625 151.039 76.1536 151.039 76.8047C151.039 77.4922 150.771 78.0573 150.234 78.5C149.703 78.9427 148.935 79.1641 147.93 79.1641ZM155.867 79.1641C155.273 79.1641 154.721 79.0859 154.211 78.9297C153.706 78.7682 153.229 78.5365 152.781 78.2344L152.773 76.5H153.539L153.672 77.7422C153.974 77.9766 154.31 78.1458 154.68 78.25C155.049 78.3542 155.445 78.4062 155.867 78.4062C156.576 78.4062 157.115 78.2526 157.484 77.9453C157.854 77.638 158.039 77.2734 158.039 76.8516C158.039 76.4557 157.872 76.1068 157.539 75.8047C157.211 75.4974 156.625 75.25 155.781 75.0625C154.771 74.8438 154.039 74.5521 153.586 74.1875C153.138 73.8229 152.914 73.3151 152.914 72.6641C152.914 72.237 153.034 71.8516 153.273 71.5078C153.513 71.1641 153.852 70.8932 154.289 70.6953C154.732 70.4922 155.25 70.3906 155.844 70.3906C156.464 70.3906 157.003 70.4818 157.461 70.6641C157.919 70.8411 158.312 71.0807 158.641 71.3828L158.68 73.1172H157.914L157.805 71.8672C157.57 71.6432 157.297 71.4714 156.984 71.3516C156.672 71.2266 156.292 71.1641 155.844 71.1641C155.208 71.1641 154.719 71.3125 154.375 71.6094C154.031 71.901 153.859 72.2422 153.859 72.6328C153.859 72.888 153.911 73.112 154.016 73.3047C154.125 73.4922 154.331 73.6615 154.633 73.8125C154.94 73.9635 155.385 74.1068 155.969 74.2422C157.026 74.4818 157.792 74.8073 158.266 75.2188C158.74 75.625 158.977 76.1536 158.977 76.8047C158.977 77.4922 158.708 78.0573 158.172 78.5C157.641 78.9427 156.872 79.1641 155.867 79.1641ZM164.391 79V78.3203L165.664 78.2188V67.6016L164.391 67.5V66.8125H166.602V78.2188L167.875 78.3203V79H164.391ZM172.867 79.1641C172.143 79.1641 171.505 78.9896 170.953 78.6406C170.401 78.2865 169.969 77.7995 169.656 77.1797C169.344 76.5547 169.188 75.8359 169.188 75.0234V74.5938C169.188 73.7865 169.344 73.0677 169.656 72.4375C169.969 71.8021 170.391 71.3021 170.922 70.9375C171.458 70.5729 172.055 70.3906 172.711 70.3906C173.404 70.3906 173.995 70.5391 174.484 70.8359C174.979 71.1328 175.357 71.5521 175.617 72.0938C175.883 72.6302 176.016 73.263 176.016 73.9922V74.7891H170.156L170.141 75.1328C170.146 75.7578 170.26 76.3151 170.484 76.8047C170.714 77.2943 171.031 77.6797 171.438 77.9609C171.849 78.2422 172.326 78.3828 172.867 78.3828C173.398 78.3828 173.865 78.2995 174.266 78.1328C174.672 77.9609 175.029 77.7292 175.336 77.4375L175.734 78.0781C175.406 78.3906 175.008 78.651 174.539 78.8594C174.076 79.0625 173.518 79.1641 172.867 79.1641ZM170.219 74.0078H175.078V73.7734C175.078 73.2786 174.982 72.8359 174.789 72.4453C174.602 72.0495 174.331 71.7396 173.977 71.5156C173.628 71.2917 173.206 71.1797 172.711 71.1797C172.263 71.1797 171.859 71.3021 171.5 71.5469C171.141 71.7865 170.846 72.1172 170.617 72.5391C170.393 72.9557 170.255 73.4297 170.203 73.9609L170.219 74.0078ZM180.172 79.1641C179.37 79.1641 178.742 78.9505 178.289 78.5234C177.836 78.0964 177.609 77.5182 177.609 76.7891C177.609 76.2682 177.76 75.8125 178.062 75.4219C178.365 75.026 178.792 74.7188 179.344 74.5C179.901 74.2812 180.56 74.1719 181.32 74.1719H183.07V73.2031C183.07 72.5938 182.888 72.1042 182.523 71.7344C182.164 71.3594 181.62 71.1719 180.891 71.1719C180.479 71.1719 180.109 71.2396 179.781 71.375C179.458 71.5052 179.177 71.6719 178.938 71.875L178.859 73.1641H178.086V71.3984C178.451 71.0859 178.865 70.8411 179.328 70.6641C179.792 70.4818 180.318 70.3906 180.906 70.3906C181.901 70.3906 182.667 70.6406 183.203 71.1406C183.74 71.6406 184.008 72.3333 184.008 73.2188V77.2969C184.008 77.4635 184.013 77.6302 184.023 77.7969C184.034 77.9583 184.052 78.1198 184.078 78.2812L185.086 78.3203V79H183.242C183.18 78.6927 183.135 78.4453 183.109 78.2578C183.089 78.0703 183.076 77.8594 183.07 77.625C182.763 78.0781 182.357 78.4479 181.852 78.7344C181.346 79.0208 180.786 79.1641 180.172 79.1641ZM180.281 78.3438C180.859 78.3438 181.406 78.1927 181.922 77.8906C182.443 77.5833 182.826 77.1771 183.07 76.6719V74.8906H181.312C180.448 74.8906 179.771 75.0781 179.281 75.4531C178.792 75.8229 178.547 76.2786 178.547 76.8203C178.547 77.2734 178.703 77.6406 179.016 77.9219C179.328 78.2031 179.75 78.3438 180.281 78.3438ZM186.305 79V78.3203L187.578 78.2188V71.3359L186.305 71.2344V70.5469H188.398L188.5 71.8359L188.508 72.0625C188.747 71.5365 189.073 71.1276 189.484 70.8359C189.896 70.5391 190.388 70.3906 190.961 70.3906C191.102 70.3906 191.25 70.4036 191.406 70.4297C191.568 70.4505 191.685 70.474 191.758 70.5L191.641 71.3594L190.773 71.3047C190.174 71.2891 189.685 71.4609 189.305 71.8203C188.924 72.1797 188.661 72.6562 188.516 73.25V78.2188L189.789 78.3203V79H186.305ZM192.859 79V78.3203L194.133 78.2188V71.3359L192.859 71.2344V70.5469H194.961L195.039 72.0625C195.31 71.5312 195.674 71.1198 196.133 70.8281C196.591 70.5365 197.138 70.3906 197.773 70.3906C198.69 70.3906 199.388 70.6719 199.867 71.2344C200.346 71.7917 200.586 72.6667 200.586 73.8594V78.2188L201.859 78.3203V79H198.375V78.3203L199.648 78.2188V73.8672C199.648 72.888 199.469 72.1979 199.109 71.7969C198.75 71.3958 198.237 71.1953 197.57 71.1953C196.872 71.1953 196.32 71.3906 195.914 71.7812C195.508 72.1719 195.227 72.6823 195.07 73.3125V78.2188L196.344 78.3203V79H192.859ZM203.242 79V78.3203L204.516 78.2188V71.3359L203.242 71.2344V70.5469H205.453V78.2188L206.727 78.3203V79H203.242ZM204.406 68.1641V66.8125H205.453V68.1641H204.406ZM208.188 79V78.3203L209.461 78.2188V71.3359L208.188 71.2344V70.5469H210.289L210.367 72.0625C210.638 71.5312 211.003 71.1198 211.461 70.8281C211.919 70.5365 212.466 70.3906 213.102 70.3906C214.018 70.3906 214.716 70.6719 215.195 71.2344C215.674 71.7917 215.914 72.6667 215.914 73.8594V78.2188L217.188 78.3203V79H213.703V78.3203L214.977 78.2188V73.8672C214.977 72.888 214.797 72.1979 214.438 71.7969C214.078 71.3958 213.565 71.1953 212.898 71.1953C212.201 71.1953 211.648 71.3906 211.242 71.7812C210.836 72.1719 210.555 72.6823 210.398 73.3125V78.2188L211.672 78.3203V79H208.188ZM222.062 82.4141C221.651 82.4141 221.216 82.3646 220.758 82.2656C220.299 82.1667 219.898 82.0339 219.555 81.8672L219.805 81.0859C220.138 81.2474 220.49 81.3724 220.859 81.4609C221.234 81.5495 221.63 81.5938 222.047 81.5938C222.849 81.5938 223.451 81.3542 223.852 80.875C224.258 80.401 224.461 79.7396 224.461 78.8906V77.8594C224.18 78.2708 223.818 78.5911 223.375 78.8203C222.938 79.0495 222.427 79.1641 221.844 79.1641C221.167 79.1641 220.586 78.9922 220.102 78.6484C219.617 78.3047 219.245 77.8229 218.984 77.2031C218.724 76.5781 218.594 75.8464 218.594 75.0078V74.8438C218.594 73.9427 218.724 73.1589 218.984 72.4922C219.245 71.8255 219.617 71.3099 220.102 70.9453C220.591 70.5755 221.177 70.3906 221.859 70.3906C222.464 70.3906 222.987 70.5208 223.43 70.7812C223.872 71.0417 224.232 71.4062 224.508 71.875L224.609 70.5469H225.398V78.8906C225.398 79.6146 225.266 80.2396 225 80.7656C224.74 81.2917 224.359 81.6979 223.859 81.9844C223.359 82.2708 222.76 82.4141 222.062 82.4141ZM222.016 78.3594C222.63 78.3594 223.138 78.2188 223.539 77.9375C223.945 77.6562 224.253 77.2708 224.461 76.7812V72.9141C224.263 72.4193 223.971 72.0104 223.586 71.6875C223.201 71.3594 222.682 71.1953 222.031 71.1953C221.484 71.1953 221.026 71.3516 220.656 71.6641C220.286 71.9714 220.008 72.3984 219.82 72.9453C219.633 73.4922 219.539 74.125 219.539 74.8438V75.0078C219.539 76.0286 219.745 76.8438 220.156 77.4531C220.573 78.0573 221.193 78.3594 222.016 78.3594ZM225.211 71.3516L224.906 70.5469H226.484V71.2266L225.211 71.3516ZM231.242 82.25V81.5625L232.484 81.4609V71.3359L231.211 71.2344V70.5469H233.266L233.383 71.8359C233.664 71.3776 234.026 71.0234 234.469 70.7734C234.917 70.5182 235.443 70.3906 236.047 70.3906C236.724 70.3906 237.305 70.5755 237.789 70.9453C238.279 71.3099 238.651 71.8255 238.906 72.4922C239.167 73.1589 239.297 73.9427 239.297 74.8438V75.0078C239.297 75.8516 239.167 76.5833 238.906 77.2031C238.651 77.8229 238.281 78.3047 237.797 78.6484C237.318 78.9922 236.742 79.1641 236.07 79.1641C235.471 79.1641 234.948 79.0521 234.5 78.8281C234.057 78.6042 233.698 78.2917 233.422 77.8906V81.4609L234.727 81.5625V82.25H231.242ZM235.852 78.3828C236.669 78.3828 237.289 78.0755 237.711 77.4609C238.138 76.8464 238.352 76.0286 238.352 75.0078V74.8438C238.352 74.125 238.255 73.4922 238.062 72.9453C237.87 72.3984 237.586 71.9714 237.211 71.6641C236.841 71.3516 236.383 71.1953 235.836 71.1953C235.195 71.1953 234.68 71.3516 234.289 71.6641C233.904 71.9766 233.615 72.3724 233.422 72.8516V76.8828C233.62 77.3464 233.922 77.7135 234.328 77.9844C234.734 78.25 235.242 78.3828 235.852 78.3828ZM240.516 79V78.3203L241.789 78.2188V67.6016L240.516 67.5V66.8125H242.727V78.2188L244 78.3203V79H240.516ZM248.016 79.1641C247.214 79.1641 246.586 78.9505 246.133 78.5234C245.68 78.0964 245.453 77.5182 245.453 76.7891C245.453 76.2682 245.604 75.8125 245.906 75.4219C246.208 75.026 246.635 74.7188 247.188 74.5C247.745 74.2812 248.404 74.1719 249.164 74.1719H250.914V73.2031C250.914 72.5938 250.732 72.1042 250.367 71.7344C250.008 71.3594 249.464 71.1719 248.734 71.1719C248.323 71.1719 247.953 71.2396 247.625 71.375C247.302 71.5052 247.021 71.6719 246.781 71.875L246.703 73.1641H245.93V71.3984C246.294 71.0859 246.708 70.8411 247.172 70.6641C247.635 70.4818 248.161 70.3906 248.75 70.3906C249.745 70.3906 250.51 70.6406 251.047 71.1406C251.583 71.6406 251.852 72.3333 251.852 73.2188V77.2969C251.852 77.4635 251.857 77.6302 251.867 77.7969C251.878 77.9583 251.896 78.1198 251.922 78.2812L252.93 78.3203V79H251.086C251.023 78.6927 250.979 78.4453 250.953 78.2578C250.932 78.0703 250.919 77.8594 250.914 77.625C250.607 78.0781 250.201 78.4479 249.695 78.7344C249.19 79.0208 248.63 79.1641 248.016 79.1641ZM248.125 78.3438C248.703 78.3438 249.25 78.1927 249.766 77.8906C250.286 77.5833 250.669 77.1771 250.914 76.6719V74.8906H249.156C248.292 74.8906 247.615 75.0781 247.125 75.4531C246.635 75.8229 246.391 76.2786 246.391 76.8203C246.391 77.2734 246.547 77.6406 246.859 77.9219C247.172 78.2031 247.594 78.3438 248.125 78.3438ZM257.211 79.1484C256.617 79.1484 256.156 78.9661 255.828 78.6016C255.5 78.2318 255.336 77.638 255.336 76.8203V71.3047H253.875V70.5469H255.336V68.375H256.273V70.5469H258.242V71.3047H256.273V76.8203C256.273 77.3828 256.372 77.7891 256.57 78.0391C256.773 78.2839 257.042 78.4062 257.375 78.4062C257.552 78.4062 257.727 78.3958 257.898 78.375C258.07 78.349 258.247 78.3229 258.43 78.2969L258.57 78.9688C258.383 79.026 258.169 79.0703 257.93 79.1016C257.69 79.1328 257.451 79.1484 257.211 79.1484ZM259.906 79V78.3203L261.18 78.2188V71.3047H259.773V70.5469H261.18V69.3047C261.18 68.4609 261.391 67.8073 261.812 67.3438C262.24 66.8802 262.836 66.6484 263.602 66.6484C263.779 66.6484 263.958 66.6615 264.141 66.6875C264.328 66.7083 264.516 66.7448 264.703 66.7969L264.578 67.5547C264.448 67.5234 264.31 67.5 264.164 67.4844C264.023 67.4635 263.867 67.4531 263.695 67.4531C263.185 67.4531 262.794 67.6146 262.523 67.9375C262.253 68.2604 262.117 68.7161 262.117 69.3047V70.5469H264.172V71.3047H262.117V78.2188L263.469 78.3203V79H259.906ZM269.266 79.1641C268.505 79.1641 267.844 78.9844 267.281 78.625C266.724 78.2604 266.289 77.7578 265.977 77.1172C265.669 76.4714 265.516 75.7344 265.516 74.9062V74.6484C265.516 73.8203 265.669 73.0859 265.977 72.4453C266.289 71.8047 266.724 71.3021 267.281 70.9375C267.844 70.5729 268.5 70.3906 269.25 70.3906C270.005 70.3906 270.661 70.5729 271.219 70.9375C271.781 71.3021 272.216 71.8047 272.523 72.4453C272.836 73.0807 272.992 73.8151 272.992 74.6484V74.9062C272.992 75.7396 272.836 76.4766 272.523 77.1172C272.216 77.7578 271.781 78.2604 271.219 78.625C270.661 78.9844 270.01 79.1641 269.266 79.1641ZM269.266 78.3828C269.844 78.3828 270.341 78.2292 270.758 77.9219C271.174 77.6146 271.495 77.1979 271.719 76.6719C271.943 76.1458 272.055 75.5573 272.055 74.9062V74.6484C272.055 74.0026 271.943 73.4167 271.719 72.8906C271.495 72.3646 271.172 71.9479 270.75 71.6406C270.333 71.3333 269.833 71.1797 269.25 71.1797C268.667 71.1797 268.164 71.3333 267.742 71.6406C267.326 71.9479 267.005 72.3646 266.781 72.8906C266.562 73.4167 266.453 74.0026 266.453 74.6484V74.9062C266.453 75.5625 266.562 76.1536 266.781 76.6797C267.005 77.2005 267.326 77.6146 267.742 77.9219C268.164 78.2292 268.672 78.3828 269.266 78.3828ZM274.352 79V78.3203L275.625 78.2188V71.3359L274.352 71.2344V70.5469H276.445L276.547 71.8359L276.555 72.0625C276.794 71.5365 277.12 71.1276 277.531 70.8359C277.943 70.5391 278.435 70.3906 279.008 70.3906C279.148 70.3906 279.297 70.4036 279.453 70.4297C279.615 70.4505 279.732 70.474 279.805 70.5L279.688 71.3594L278.82 71.3047C278.221 71.2891 277.732 71.4609 277.352 71.8203C276.971 72.1797 276.708 72.6562 276.562 73.25V78.2188L277.836 78.3203V79H274.352ZM280.906 79V78.3203L282.18 78.2188V71.3359L280.906 71.2344V70.5469H283.016L283.094 71.9922C283.354 71.487 283.711 71.0938 284.164 70.8125C284.622 70.5312 285.167 70.3906 285.797 70.3906C286.448 70.3906 286.99 70.5521 287.422 70.875C287.854 71.1927 288.164 71.6823 288.352 72.3438C288.591 71.7344 288.948 71.2552 289.422 70.9062C289.901 70.5573 290.479 70.3828 291.156 70.3828C292.057 70.3828 292.753 70.6849 293.242 71.2891C293.737 71.888 293.984 72.8151 293.984 74.0703V78.2109L295.258 78.3125V78.9922H291.766V78.3125L293.039 78.2109V74.0547C293.039 73.0078 292.854 72.2682 292.484 71.8359C292.12 71.4036 291.612 71.1875 290.961 71.1875C290.227 71.1875 289.661 71.4219 289.266 71.8906C288.87 72.3542 288.633 72.9427 288.555 73.6562V78.2188L289.828 78.3203V79H286.336V78.3203L287.609 78.2188V74.0547C287.609 73.0286 287.422 72.2969 287.047 71.8594C286.677 71.4167 286.167 71.1953 285.516 71.1953C284.828 71.1953 284.292 71.3776 283.906 71.7422C283.526 72.1068 283.266 72.5911 283.125 73.1953V78.2188L284.398 78.3203V79H280.906ZM296.867 79V77.7266H297.938V79H296.867ZM303.891 79V78.3203L305.164 78.2188V68.4141L303.891 68.3125V67.625H305.164H308.688C309.49 67.625 310.169 67.763 310.727 68.0391C311.284 68.3151 311.708 68.7031 312 69.2031C312.292 69.6979 312.438 70.2786 312.438 70.9453C312.438 71.6172 312.292 72.2031 312 72.7031C311.708 73.1979 311.284 73.5833 310.727 73.8594C310.169 74.1302 309.49 74.2656 308.688 74.2656H306.102V78.2188L307.375 78.3203V79H303.891ZM306.102 73.4844H308.688C309.625 73.4844 310.328 73.2448 310.797 72.7656C311.266 72.2812 311.5 71.6797 311.5 70.9609C311.5 70.2266 311.266 69.6198 310.797 69.1406C310.333 68.6562 309.63 68.4141 308.688 68.4141H306.102V73.4844ZM317.594 79.1641C316.833 79.1641 316.172 78.9844 315.609 78.625C315.052 78.2604 314.617 77.7578 314.305 77.1172C313.997 76.4714 313.844 75.7344 313.844 74.9062V74.6484C313.844 73.8203 313.997 73.0859 314.305 72.4453C314.617 71.8047 315.052 71.3021 315.609 70.9375C316.172 70.5729 316.828 70.3906 317.578 70.3906C318.333 70.3906 318.99 70.5729 319.547 70.9375C320.109 71.3021 320.544 71.8047 320.852 72.4453C321.164 73.0807 321.32 73.8151 321.32 74.6484V74.9062C321.32 75.7396 321.164 76.4766 320.852 77.1172C320.544 77.7578 320.109 78.2604 319.547 78.625C318.99 78.9844 318.339 79.1641 317.594 79.1641ZM317.594 78.3828C318.172 78.3828 318.669 78.2292 319.086 77.9219C319.503 77.6146 319.823 77.1979 320.047 76.6719C320.271 76.1458 320.383 75.5573 320.383 74.9062V74.6484C320.383 74.0026 320.271 73.4167 320.047 72.8906C319.823 72.3646 319.5 71.9479 319.078 71.6406C318.661 71.3333 318.161 71.1797 317.578 71.1797C316.995 71.1797 316.492 71.3333 316.07 71.6406C315.654 71.9479 315.333 72.3646 315.109 72.8906C314.891 73.4167 314.781 74.0026 314.781 74.6484V74.9062C314.781 75.5625 314.891 76.1536 315.109 76.6797C315.333 77.2005 315.654 77.6146 316.07 77.9219C316.492 78.2292 317 78.3828 317.594 78.3828ZM325.625 79L323.266 71.2812L322.312 71.2344V70.5469H325.32V71.2344L324.219 71.3125L325.672 76.2656L326.062 77.6562H326.109L326.562 76.2656L328.492 70.5469H329.32L331.242 76.2578L331.727 77.7422L331.773 77.7344L332.227 76.2578L333.68 71.3047L332.57 71.2344V70.5469H335.547V71.2344L334.594 71.2969L332.242 79H331.336L329.359 73.2344L328.93 71.8438L328.883 71.8516L328.461 73.2344L326.469 79H325.625ZM340.336 79.1641C339.612 79.1641 338.974 78.9896 338.422 78.6406C337.87 78.2865 337.438 77.7995 337.125 77.1797C336.812 76.5547 336.656 75.8359 336.656 75.0234V74.5938C336.656 73.7865 336.812 73.0677 337.125 72.4375C337.438 71.8021 337.859 71.3021 338.391 70.9375C338.927 70.5729 339.523 70.3906 340.18 70.3906C340.872 70.3906 341.464 70.5391 341.953 70.8359C342.448 71.1328 342.826 71.5521 343.086 72.0938C343.352 72.6302 343.484 73.263 343.484 73.9922V74.7891H337.625L337.609 75.1328C337.615 75.7578 337.729 76.3151 337.953 76.8047C338.182 77.2943 338.5 77.6797 338.906 77.9609C339.318 78.2422 339.794 78.3828 340.336 78.3828C340.867 78.3828 341.333 78.2995 341.734 78.1328C342.141 77.9609 342.497 77.7292 342.805 77.4375L343.203 78.0781C342.875 78.3906 342.477 78.651 342.008 78.8594C341.544 79.0625 340.987 79.1641 340.336 79.1641ZM337.688 74.0078H342.547V73.7734C342.547 73.2786 342.451 72.8359 342.258 72.4453C342.07 72.0495 341.799 71.7396 341.445 71.5156C341.096 71.2917 340.674 71.1797 340.18 71.1797C339.732 71.1797 339.328 71.3021 338.969 71.5469C338.609 71.7865 338.315 72.1172 338.086 72.5391C337.862 72.9557 337.724 73.4297 337.672 73.9609L337.688 74.0078ZM344.93 79V78.3203L346.203 78.2188V71.3359L344.93 71.2344V70.5469H347.023L347.125 71.8359L347.133 72.0625C347.372 71.5365 347.698 71.1276 348.109 70.8359C348.521 70.5391 349.013 70.3906 349.586 70.3906C349.727 70.3906 349.875 70.4036 350.031 70.4297C350.193 70.4505 350.31 70.474 350.383 70.5L350.266 71.3594L349.398 71.3047C348.799 71.2891 348.31 71.4609 347.93 71.8203C347.549 72.1797 347.286 72.6562 347.141 73.25V78.2188L348.414 78.3203V79H344.93ZM355.102 79.1641C354.378 79.1641 353.74 78.9896 353.188 78.6406C352.635 78.2865 352.203 77.7995 351.891 77.1797C351.578 76.5547 351.422 75.8359 351.422 75.0234V74.5938C351.422 73.7865 351.578 73.0677 351.891 72.4375C352.203 71.8021 352.625 71.3021 353.156 70.9375C353.693 70.5729 354.289 70.3906 354.945 70.3906C355.638 70.3906 356.229 70.5391 356.719 70.8359C357.214 71.1328 357.591 71.5521 357.852 72.0938C358.117 72.6302 358.25 73.263 358.25 73.9922V74.7891H352.391L352.375 75.1328C352.38 75.7578 352.495 76.3151 352.719 76.8047C352.948 77.2943 353.266 77.6797 353.672 77.9609C354.083 78.2422 354.56 78.3828 355.102 78.3828C355.633 78.3828 356.099 78.2995 356.5 78.1328C356.906 77.9609 357.263 77.7292 357.57 77.4375L357.969 78.0781C357.641 78.3906 357.242 78.651 356.773 78.8594C356.31 79.0625 355.753 79.1641 355.102 79.1641ZM352.453 74.0078H357.312V73.7734C357.312 73.2786 357.216 72.8359 357.023 72.4453C356.836 72.0495 356.565 71.7396 356.211 71.5156C355.862 71.2917 355.44 71.1797 354.945 71.1797C354.497 71.1797 354.094 71.3021 353.734 71.5469C353.375 71.7865 353.081 72.1172 352.852 72.5391C352.628 72.9557 352.49 73.4297 352.438 73.9609L352.453 74.0078ZM363.148 79.1641C362.477 79.1641 361.898 78.9922 361.414 78.6484C360.93 78.3047 360.56 77.8229 360.305 77.2031C360.049 76.5833 359.922 75.8516 359.922 75.0078V74.8438C359.922 73.9427 360.049 73.1589 360.305 72.4922C360.56 71.8255 360.93 71.3099 361.414 70.9453C361.904 70.5755 362.487 70.3906 363.164 70.3906C363.753 70.3906 364.263 70.5156 364.695 70.7656C365.133 71.0156 365.492 71.3646 365.773 71.8125V67.6016L364.5 67.5V66.8125H365.773H366.711V78.2188L367.984 78.3203V79H365.875L365.805 77.8047C365.529 78.2318 365.167 78.5651 364.719 78.8047C364.271 79.0443 363.747 79.1641 363.148 79.1641ZM363.32 78.3594C363.93 78.3594 364.438 78.2214 364.844 77.9453C365.25 77.6693 365.56 77.2943 365.773 76.8203V72.875C365.57 72.3854 365.273 71.9844 364.883 71.6719C364.492 71.3542 363.977 71.1953 363.336 71.1953C362.789 71.1953 362.333 71.349 361.969 71.6562C361.604 71.9635 361.328 72.3906 361.141 72.9375C360.958 73.4844 360.867 74.1198 360.867 74.8438V75.0078C360.867 76.0286 361.07 76.8438 361.477 77.4531C361.888 78.0573 362.503 78.3594 363.32 78.3594ZM377.352 79.1641C376.732 79.1641 376.195 79.0417 375.742 78.7969C375.294 78.5521 374.932 78.2109 374.656 77.7734L374.562 79H373.758V67.6016L372.484 67.5V66.8125H374.695V71.8359C374.971 71.3828 375.328 71.0286 375.766 70.7734C376.208 70.5182 376.732 70.3906 377.336 70.3906C378.013 70.3906 378.594 70.5755 379.078 70.9453C379.562 71.3099 379.932 71.8255 380.188 72.4922C380.448 73.1589 380.578 73.9427 380.578 74.8438V75.0078C380.578 75.8516 380.448 76.5833 380.188 77.2031C379.932 77.8229 379.562 78.3047 379.078 78.6484C378.599 78.9922 378.023 79.1641 377.352 79.1641ZM377.172 78.3594C377.984 78.3594 378.596 78.0573 379.008 77.4531C379.424 76.8438 379.633 76.0286 379.633 75.0078V74.8438C379.633 74.1198 379.539 73.4844 379.352 72.9375C379.169 72.3906 378.893 71.9635 378.523 71.6562C378.159 71.349 377.703 71.1953 377.156 71.1953C376.495 71.1953 375.966 71.362 375.57 71.6953C375.18 72.0234 374.888 72.4401 374.695 72.9453V76.7578C374.893 77.2474 375.201 77.638 375.617 77.9297C376.034 78.2161 376.552 78.3594 377.172 78.3594ZM383.461 82.4141C383.352 82.4141 383.219 82.401 383.062 82.375C382.911 82.3542 382.797 82.3333 382.719 82.3125L382.828 81.5391C382.901 81.5495 383.003 81.5599 383.133 81.5703C383.268 81.5859 383.367 81.5938 383.43 81.5938C383.836 81.5938 384.159 81.4583 384.398 81.1875C384.638 80.9219 384.857 80.5417 385.055 80.0469L385.492 78.8984L382.391 71.2891L381.477 71.2344V70.5469H384.453V71.2344L383.383 71.3047L385.555 76.7578L385.906 77.7188H385.953L388.367 71.3047L387.266 71.2344V70.5469H390.219V71.2344L389.32 71.2891L385.852 80.3594C385.695 80.7552 385.518 81.1094 385.32 81.4219C385.122 81.7344 384.875 81.9766 384.578 82.1484C384.281 82.3255 383.909 82.4141 383.461 82.4141ZM397.812 79V78.3203L399.086 78.2188V68.3906H395.891L395.789 70.125H395.023V67.625H404.078V70.125H403.32L403.211 68.3906H400.023V78.2188L401.297 78.3203V79H397.812ZM410.125 79.1641C409.406 79.1641 408.755 79.026 408.172 78.75C407.589 78.474 407.089 78.0807 406.672 77.5703C406.255 77.0599 405.935 76.4531 405.711 75.75C405.487 75.0417 405.375 74.2552 405.375 73.3906V73.2422C405.375 72.3776 405.484 71.5938 405.703 70.8906C405.927 70.1823 406.247 69.5729 406.664 69.0625C407.081 68.5469 407.581 68.151 408.164 67.875C408.747 67.599 409.398 67.4609 410.117 67.4609C410.852 67.4609 411.51 67.599 412.094 67.875C412.682 68.151 413.182 68.5469 413.594 69.0625C414.01 69.5729 414.326 70.1823 414.539 70.8906C414.758 71.5938 414.867 72.3776 414.867 73.2422V73.3906C414.867 74.2552 414.758 75.0417 414.539 75.75C414.326 76.4531 414.013 77.0599 413.602 77.5703C413.19 78.0807 412.69 78.474 412.102 78.75C411.518 79.026 410.859 79.1641 410.125 79.1641ZM410.125 78.3438C410.948 78.3438 411.641 78.138 412.203 77.7266C412.771 77.3151 413.201 76.737 413.492 75.9922C413.784 75.2474 413.93 74.3802 413.93 73.3906V73.2266C413.93 72.237 413.781 71.3724 413.484 70.6328C413.193 69.8932 412.763 69.3177 412.195 68.9062C411.628 68.4896 410.935 68.2812 410.117 68.2812C409.331 68.2812 408.654 68.4896 408.086 68.9062C407.518 69.3177 407.081 69.8958 406.773 70.6406C406.471 71.3802 406.32 72.2422 406.32 73.2266V73.3906C406.32 74.3802 406.471 75.2474 406.773 75.9922C407.081 76.737 407.518 77.3151 408.086 77.7266C408.659 78.138 409.339 78.3438 410.125 78.3438ZM416.32 79V78.3203L417.594 78.2188V68.4141L416.32 68.3125V67.625H417.594H418.539L425.039 77.4062L425.086 77.3906V68.4141L423.758 68.3125V67.625H425.969H427.242V68.3125L425.969 68.4141V79H425.094L418.523 69.1797L418.477 69.1953V78.2188L419.805 78.3203V79H416.32Z" fill="black"/>
<path d="M98.793 52V49.522L101.016 49.0547V34.3564L98.793 33.875V31.3828H101.016H107.841C109.682 31.3828 111.306 31.8171 112.712 32.6855C114.119 33.5446 115.214 34.7388 115.998 36.2681C116.791 37.7879 117.187 39.5343 117.187 41.5073V41.8896C117.187 43.8438 116.795 45.5854 116.012 47.1147C115.238 48.6346 114.152 49.8288 112.755 50.6973C111.358 51.5658 109.739 52 107.898 52H98.793ZM105.151 48.8423H107.686C108.828 48.8423 109.795 48.5449 110.588 47.9502C111.381 47.346 111.986 46.52 112.401 45.4722C112.826 44.4243 113.038 43.2301 113.038 41.8896V41.4932C113.038 40.1338 112.826 38.9349 112.401 37.8965C111.986 36.8486 111.381 36.0321 110.588 35.4468C109.795 34.8521 108.828 34.5547 107.686 34.5547H105.151V48.8423ZM118.957 52V49.522L120.954 49.0972V39.5957L118.745 39.1709V36.6787H125.088V49.0972L127.071 49.522V52H118.957ZM120.812 33.436V29.9102H125.088V33.436H120.812ZM133.584 52.2974C132.065 52.2974 130.856 51.8914 129.959 51.0796C129.063 50.2583 128.614 49.1444 128.614 47.7378C128.614 46.7749 128.874 45.93 129.393 45.2031C129.922 44.4762 130.696 43.9051 131.715 43.4897C132.744 43.0744 134.009 42.8667 135.51 42.8667H137.535V41.7339C137.535 40.9976 137.318 40.4028 136.884 39.9497C136.459 39.4871 135.817 39.2559 134.958 39.2559C134.514 39.2559 134.118 39.3125 133.769 39.4258C133.419 39.5296 133.098 39.6807 132.806 39.8789L132.48 41.9038H129.506L129.45 37.9248C130.252 37.4717 131.121 37.1035 132.055 36.8203C132.99 36.5371 134.033 36.3955 135.185 36.3955C137.186 36.3955 138.767 36.8628 139.928 37.7974C141.089 38.7225 141.67 40.0488 141.67 41.7764V48.0918C141.67 48.2995 141.67 48.5072 141.67 48.7148C141.679 48.9131 141.698 49.1066 141.727 49.2954L143.327 49.522V52H138.201C138.097 51.7357 137.993 51.4525 137.889 51.1504C137.785 50.8483 137.71 50.5462 137.663 50.2441C137.172 50.8672 136.591 51.3675 135.921 51.7451C135.26 52.1133 134.481 52.2974 133.584 52.2974ZM134.689 49.2388C135.265 49.2388 135.812 49.1113 136.332 48.8564C136.851 48.5921 137.252 48.2476 137.535 47.8228V45.4014H135.496C134.59 45.4014 133.901 45.609 133.429 46.0244C132.966 46.4398 132.735 46.9401 132.735 47.5254C132.735 48.0729 132.905 48.4977 133.245 48.7998C133.594 49.0924 134.075 49.2388 134.689 49.2388ZM144.644 52V49.522L146.64 49.0972V39.5957L144.431 39.1709V36.6787H150.478L150.647 38.7036C151.138 37.9673 151.752 37.4009 152.488 37.0044C153.234 36.5985 154.093 36.3955 155.065 36.3955C156.047 36.3955 156.887 36.6126 157.586 37.0469C158.294 37.4811 158.823 38.1372 159.172 39.0151C159.644 38.1938 160.257 37.5519 161.013 37.0894C161.768 36.6268 162.655 36.3955 163.675 36.3955C165.185 36.3955 166.375 36.91 167.243 37.939C168.121 38.9679 168.56 40.535 168.56 42.6401V49.0972L170.557 49.522V52H162.641V49.522L164.425 49.0972V42.626C164.425 41.4932 164.236 40.7096 163.859 40.2754C163.491 39.8317 162.953 39.6099 162.245 39.6099C161.603 39.6099 161.06 39.7939 160.616 40.1621C160.173 40.5208 159.852 40.9976 159.653 41.5923V49.0972L161.324 49.522V52H153.862V49.522L155.533 49.0972V42.626C155.533 41.5215 155.344 40.7427 154.966 40.2896C154.598 39.8364 154.051 39.6099 153.324 39.6099C152.738 39.6099 152.233 39.7279 151.809 39.9639C151.384 40.1999 151.035 40.5397 150.761 40.9834V49.0972L152.545 49.522V52H144.644ZM179.095 52.2974C177.585 52.2974 176.287 51.967 175.201 51.3062C174.116 50.6453 173.285 49.7297 172.709 48.5591C172.133 47.3791 171.845 46.0244 171.845 44.4951V44.1978C171.845 42.6779 172.133 41.3327 172.709 40.1621C173.285 38.9821 174.111 38.0617 175.187 37.4009C176.273 36.7306 177.566 36.3955 179.067 36.3955C180.587 36.3955 181.885 36.7306 182.961 37.4009C184.037 38.0617 184.863 38.9774 185.439 40.1479C186.015 41.3185 186.303 42.6685 186.303 44.1978V44.4951C186.303 46.0244 186.015 47.3791 185.439 48.5591C184.863 49.7297 184.037 50.6453 182.961 51.3062C181.885 51.967 180.596 52.2974 179.095 52.2974ZM179.095 49.1255C179.813 49.1255 180.398 48.932 180.851 48.5449C181.304 48.1579 181.639 47.6198 181.856 46.9307C182.074 46.2321 182.182 45.4202 182.182 44.4951V44.1978C182.182 43.2915 182.074 42.4938 181.856 41.8047C181.639 41.1061 181.299 40.5633 180.837 40.1763C180.384 39.7798 179.794 39.5815 179.067 39.5815C178.359 39.5815 177.774 39.7798 177.311 40.1763C176.848 40.5633 176.509 41.1061 176.292 41.8047C176.084 42.4938 175.98 43.2915 175.98 44.1978V44.4951C175.98 45.4202 176.084 46.2321 176.292 46.9307C176.509 47.6292 176.848 48.172 177.311 48.5591C177.774 48.9367 178.368 49.1255 179.095 49.1255ZM188.002 52V49.522L189.984 49.0972V39.5957L187.79 39.1709V36.6787H193.836L194.02 38.8735C194.53 38.09 195.158 37.4811 195.903 37.0469C196.659 36.6126 197.518 36.3955 198.48 36.3955C200 36.3955 201.19 36.8817 202.049 37.854C202.908 38.8263 203.337 40.3509 203.337 42.4277V49.0972L205.32 49.522V52H197.418V49.522L199.188 49.0972V42.4419C199.188 41.4129 198.986 40.686 198.58 40.2612C198.174 39.827 197.569 39.6099 196.767 39.6099C196.172 39.6099 195.653 39.7373 195.209 39.9922C194.775 40.2376 194.412 40.5916 194.119 41.0542V49.0972L195.79 49.522V52H188.002ZM212.4 52.2974C211.182 52.2974 210.134 51.9858 209.256 51.3628C208.388 50.7303 207.722 49.8524 207.26 48.729C206.797 47.5962 206.566 46.2746 206.566 44.7642V44.4668C206.566 42.8525 206.797 41.4412 207.26 40.2329C207.732 39.0246 208.402 38.0853 209.271 37.415C210.139 36.7354 211.177 36.3955 212.386 36.3955C213.226 36.3955 213.962 36.5654 214.595 36.9053C215.227 37.2357 215.775 37.7077 216.237 38.3213V32.8271L214.028 32.4023V29.9102H216.237H220.372V49.0972L222.354 49.522V52H216.79L216.478 50.1309C215.997 50.8389 215.421 51.377 214.75 51.7451C214.09 52.1133 213.306 52.2974 212.4 52.2974ZM213.632 49.083C214.208 49.083 214.713 48.9603 215.147 48.7148C215.581 48.4694 215.945 48.1154 216.237 47.6528V41.1533C215.954 40.6624 215.595 40.2848 215.161 40.0205C214.727 39.7467 214.227 39.6099 213.66 39.6099C212.971 39.6099 212.405 39.8175 211.961 40.2329C211.527 40.6388 211.206 41.2052 210.998 41.9321C210.8 42.659 210.701 43.5039 210.701 44.4668V44.7642C210.701 46.1047 210.927 47.1619 211.38 47.936C211.833 48.7007 212.584 49.083 213.632 49.083ZM230.242 52.2974C229.099 52.2974 228.033 52.1888 227.042 51.9717C226.06 51.7546 225.116 51.443 224.209 51.0371L224.167 46.7041H227.042L227.594 48.9131C227.915 49.0736 228.264 49.201 228.642 49.2954C229.029 49.3898 229.468 49.437 229.958 49.437C230.884 49.437 231.535 49.286 231.913 48.9839C232.29 48.6818 232.479 48.3042 232.479 47.8511C232.479 47.4263 232.276 47.0534 231.87 46.7324C231.474 46.402 230.676 46.1141 229.477 45.8687C227.665 45.491 226.329 44.9058 225.47 44.1128C224.611 43.3198 224.181 42.305 224.181 41.0684C224.181 40.2188 224.394 39.4447 224.818 38.7461C225.253 38.0475 225.909 37.4858 226.787 37.061C227.674 36.6362 228.807 36.4238 230.185 36.4238C231.337 36.4238 232.389 36.5371 233.343 36.7637C234.306 36.9808 235.113 37.2687 235.764 37.6274L235.807 41.8188H232.946L232.507 39.8081C232.252 39.6193 231.95 39.4777 231.601 39.3833C231.261 39.2889 230.874 39.2417 230.44 39.2417C229.713 39.2417 229.156 39.388 228.769 39.6807C228.382 39.9733 228.188 40.3509 228.188 40.8135C228.188 41.0778 228.255 41.3232 228.387 41.5498C228.528 41.7764 228.802 41.9888 229.208 42.187C229.614 42.3853 230.204 42.5741 230.978 42.7534C232.875 43.1877 234.258 43.7682 235.127 44.4951C235.995 45.2126 236.43 46.2227 236.43 47.5254C236.43 48.9508 235.91 50.1025 234.872 50.9805C233.843 51.8584 232.3 52.2974 230.242 52.2974Z" fill="black"/>
<path d="M39.7147 61.9563L24 28H48M39.7147 61.9563H48M39.7147 61.9563V71.9476L44.679 76H51.8003L56.2853 71.9476V61.9563M56.2853 61.9563L72 28H48M56.2853 61.9563H48M48 28V61.9563" stroke="#2F80ED" stroke-width="5" stroke-linejoin="round"/>
</svg>
