<svg width="423" height="65" viewBox="0 0 423 65" fill="none" xmlns="http://www.w3.org/2000/svg">
<path d="M93.5938 58V57.3203L94.8672 57.2188V47.4141L93.5938 47.3125V46.625H102.016V49.1172H101.219L101.141 47.4062H95.8047V51.875H100.438V52.6641H95.8047V57.2188L97.0781 57.3203V58H93.5938ZM106.789 58.1641C106.065 58.1641 105.427 57.9896 104.875 57.6406C104.323 57.2865 103.891 56.7995 103.578 56.1797C103.266 55.5547 103.109 54.8359 103.109 54.0234V53.5938C103.109 52.7865 103.266 52.0677 103.578 51.4375C103.891 50.8021 104.312 50.3021 104.844 49.9375C105.38 49.5729 105.977 49.3906 106.633 49.3906C107.326 49.3906 107.917 49.5391 108.406 49.8359C108.901 50.1328 109.279 50.5521 109.539 51.0938C109.805 51.6302 109.938 52.263 109.938 52.9922V53.7891H104.078L104.062 54.1328C104.068 54.7578 104.182 55.3151 104.406 55.8047C104.635 56.2943 104.953 56.6797 105.359 56.9609C105.771 57.2422 106.247 57.3828 106.789 57.3828C107.32 57.3828 107.786 57.2995 108.188 57.1328C108.594 56.9609 108.951 56.7292 109.258 56.4375L109.656 57.0781C109.328 57.3906 108.93 57.651 108.461 57.8594C107.997 58.0625 107.44 58.1641 106.789 58.1641ZM104.141 53.0078H109V52.7734C109 52.2786 108.904 51.8359 108.711 51.4453C108.523 51.0495 108.253 50.7396 107.898 50.5156C107.549 50.2917 107.128 50.1797 106.633 50.1797C106.185 50.1797 105.781 50.3021 105.422 50.5469C105.062 50.7865 104.768 51.1172 104.539 51.5391C104.315 51.9557 104.177 52.4297 104.125 52.9609L104.141 53.0078ZM114.094 58.1641C113.292 58.1641 112.664 57.9505 112.211 57.5234C111.758 57.0964 111.531 56.5182 111.531 55.7891C111.531 55.2682 111.682 54.8125 111.984 54.4219C112.286 54.026 112.714 53.7188 113.266 53.5C113.823 53.2812 114.482 53.1719 115.242 53.1719H116.992V52.2031C116.992 51.5938 116.81 51.1042 116.445 50.7344C116.086 50.3594 115.542 50.1719 114.812 50.1719C114.401 50.1719 114.031 50.2396 113.703 50.375C113.38 50.5052 113.099 50.6719 112.859 50.875L112.781 52.1641H112.008V50.3984C112.372 50.0859 112.786 49.8411 113.25 49.6641C113.714 49.4818 114.24 49.3906 114.828 49.3906C115.823 49.3906 116.589 49.6406 117.125 50.1406C117.661 50.6406 117.93 51.3333 117.93 52.2188V56.2969C117.93 56.4635 117.935 56.6302 117.945 56.7969C117.956 56.9583 117.974 57.1198 118 57.2812L119.008 57.3203V58H117.164C117.102 57.6927 117.057 57.4453 117.031 57.2578C117.01 57.0703 116.997 56.8594 116.992 56.625C116.685 57.0781 116.279 57.4479 115.773 57.7344C115.268 58.0208 114.708 58.1641 114.094 58.1641ZM114.203 57.3438C114.781 57.3438 115.328 57.1927 115.844 56.8906C116.365 56.5833 116.747 56.1771 116.992 55.6719V53.8906H115.234C114.37 53.8906 113.693 54.0781 113.203 54.4531C112.714 54.8229 112.469 55.2786 112.469 55.8203C112.469 56.2734 112.625 56.6406 112.938 56.9219C113.25 57.2031 113.672 57.3438 114.203 57.3438ZM120.227 58V57.3203L121.5 57.2188V50.3359L120.227 50.2344V49.5469H122.32L122.422 50.8359L122.43 51.0625C122.669 50.5365 122.995 50.1276 123.406 49.8359C123.818 49.5391 124.31 49.3906 124.883 49.3906C125.023 49.3906 125.172 49.4036 125.328 49.4297C125.49 49.4505 125.607 49.474 125.68 49.5L125.562 50.3594L124.695 50.3047C124.096 50.2891 123.607 50.4609 123.227 50.8203C122.846 51.1797 122.583 51.6562 122.438 52.25V57.2188L123.711 57.3203V58H120.227ZM126.562 58V57.3203L127.836 57.2188V46.6016L126.562 46.5V45.8125H128.773V57.2188L130.047 57.3203V58H126.562ZM135.039 58.1641C134.315 58.1641 133.677 57.9896 133.125 57.6406C132.573 57.2865 132.141 56.7995 131.828 56.1797C131.516 55.5547 131.359 54.8359 131.359 54.0234V53.5938C131.359 52.7865 131.516 52.0677 131.828 51.4375C132.141 50.8021 132.562 50.3021 133.094 49.9375C133.63 49.5729 134.227 49.3906 134.883 49.3906C135.576 49.3906 136.167 49.5391 136.656 49.8359C137.151 50.1328 137.529 50.5521 137.789 51.0938C138.055 51.6302 138.188 52.263 138.188 52.9922V53.7891H132.328L132.312 54.1328C132.318 54.7578 132.432 55.3151 132.656 55.8047C132.885 56.2943 133.203 56.6797 133.609 56.9609C134.021 57.2422 134.497 57.3828 135.039 57.3828C135.57 57.3828 136.036 57.2995 136.438 57.1328C136.844 56.9609 137.201 56.7292 137.508 56.4375L137.906 57.0781C137.578 57.3906 137.18 57.651 136.711 57.8594C136.247 58.0625 135.69 58.1641 135.039 58.1641ZM132.391 53.0078H137.25V52.7734C137.25 52.2786 137.154 51.8359 136.961 51.4453C136.773 51.0495 136.503 50.7396 136.148 50.5156C135.799 50.2917 135.378 50.1797 134.883 50.1797C134.435 50.1797 134.031 50.3021 133.672 50.5469C133.312 50.7865 133.018 51.1172 132.789 51.5391C132.565 51.9557 132.427 52.4297 132.375 52.9609L132.391 53.0078ZM142.93 58.1641C142.336 58.1641 141.784 58.0859 141.273 57.9297C140.768 57.7682 140.292 57.5365 139.844 57.2344L139.836 55.5H140.602L140.734 56.7422C141.036 56.9766 141.372 57.1458 141.742 57.25C142.112 57.3542 142.508 57.4062 142.93 57.4062C143.638 57.4062 144.177 57.2526 144.547 56.9453C144.917 56.638 145.102 56.2734 145.102 55.8516C145.102 55.4557 144.935 55.1068 144.602 54.8047C144.273 54.4974 143.688 54.25 142.844 54.0625C141.833 53.8438 141.102 53.5521 140.648 53.1875C140.201 52.8229 139.977 52.3151 139.977 51.6641C139.977 51.237 140.096 50.8516 140.336 50.5078C140.576 50.1641 140.914 49.8932 141.352 49.6953C141.794 49.4922 142.312 49.3906 142.906 49.3906C143.526 49.3906 144.065 49.4818 144.523 49.6641C144.982 49.8411 145.375 50.0807 145.703 50.3828L145.742 52.1172H144.977L144.867 50.8672C144.633 50.6432 144.359 50.4714 144.047 50.3516C143.734 50.2266 143.354 50.1641 142.906 50.1641C142.271 50.1641 141.781 50.3125 141.438 50.6094C141.094 50.901 140.922 51.2422 140.922 51.6328C140.922 51.888 140.974 52.112 141.078 52.3047C141.188 52.4922 141.393 52.6615 141.695 52.8125C142.003 52.9635 142.448 53.1068 143.031 53.2422C144.089 53.4818 144.854 53.8073 145.328 54.2188C145.802 54.625 146.039 55.1536 146.039 55.8047C146.039 56.4922 145.771 57.0573 145.234 57.5C144.703 57.9427 143.935 58.1641 142.93 58.1641ZM150.867 58.1641C150.273 58.1641 149.721 58.0859 149.211 57.9297C148.706 57.7682 148.229 57.5365 147.781 57.2344L147.773 55.5H148.539L148.672 56.7422C148.974 56.9766 149.31 57.1458 149.68 57.25C150.049 57.3542 150.445 57.4062 150.867 57.4062C151.576 57.4062 152.115 57.2526 152.484 56.9453C152.854 56.638 153.039 56.2734 153.039 55.8516C153.039 55.4557 152.872 55.1068 152.539 54.8047C152.211 54.4974 151.625 54.25 150.781 54.0625C149.771 53.8438 149.039 53.5521 148.586 53.1875C148.138 52.8229 147.914 52.3151 147.914 51.6641C147.914 51.237 148.034 50.8516 148.273 50.5078C148.513 50.1641 148.852 49.8932 149.289 49.6953C149.732 49.4922 150.25 49.3906 150.844 49.3906C151.464 49.3906 152.003 49.4818 152.461 49.6641C152.919 49.8411 153.312 50.0807 153.641 50.3828L153.68 52.1172H152.914L152.805 50.8672C152.57 50.6432 152.297 50.4714 151.984 50.3516C151.672 50.2266 151.292 50.1641 150.844 50.1641C150.208 50.1641 149.719 50.3125 149.375 50.6094C149.031 50.901 148.859 51.2422 148.859 51.6328C148.859 51.888 148.911 52.112 149.016 52.3047C149.125 52.4922 149.331 52.6615 149.633 52.8125C149.94 52.9635 150.385 53.1068 150.969 53.2422C152.026 53.4818 152.792 53.8073 153.266 54.2188C153.74 54.625 153.977 55.1536 153.977 55.8047C153.977 56.4922 153.708 57.0573 153.172 57.5C152.641 57.9427 151.872 58.1641 150.867 58.1641ZM159.391 58V57.3203L160.664 57.2188V46.6016L159.391 46.5V45.8125H161.602V57.2188L162.875 57.3203V58H159.391ZM167.867 58.1641C167.143 58.1641 166.505 57.9896 165.953 57.6406C165.401 57.2865 164.969 56.7995 164.656 56.1797C164.344 55.5547 164.188 54.8359 164.188 54.0234V53.5938C164.188 52.7865 164.344 52.0677 164.656 51.4375C164.969 50.8021 165.391 50.3021 165.922 49.9375C166.458 49.5729 167.055 49.3906 167.711 49.3906C168.404 49.3906 168.995 49.5391 169.484 49.8359C169.979 50.1328 170.357 50.5521 170.617 51.0938C170.883 51.6302 171.016 52.263 171.016 52.9922V53.7891H165.156L165.141 54.1328C165.146 54.7578 165.26 55.3151 165.484 55.8047C165.714 56.2943 166.031 56.6797 166.438 56.9609C166.849 57.2422 167.326 57.3828 167.867 57.3828C168.398 57.3828 168.865 57.2995 169.266 57.1328C169.672 56.9609 170.029 56.7292 170.336 56.4375L170.734 57.0781C170.406 57.3906 170.008 57.651 169.539 57.8594C169.076 58.0625 168.518 58.1641 167.867 58.1641ZM165.219 53.0078H170.078V52.7734C170.078 52.2786 169.982 51.8359 169.789 51.4453C169.602 51.0495 169.331 50.7396 168.977 50.5156C168.628 50.2917 168.206 50.1797 167.711 50.1797C167.263 50.1797 166.859 50.3021 166.5 50.5469C166.141 50.7865 165.846 51.1172 165.617 51.5391C165.393 51.9557 165.255 52.4297 165.203 52.9609L165.219 53.0078ZM175.172 58.1641C174.37 58.1641 173.742 57.9505 173.289 57.5234C172.836 57.0964 172.609 56.5182 172.609 55.7891C172.609 55.2682 172.76 54.8125 173.062 54.4219C173.365 54.026 173.792 53.7188 174.344 53.5C174.901 53.2812 175.56 53.1719 176.32 53.1719H178.07V52.2031C178.07 51.5938 177.888 51.1042 177.523 50.7344C177.164 50.3594 176.62 50.1719 175.891 50.1719C175.479 50.1719 175.109 50.2396 174.781 50.375C174.458 50.5052 174.177 50.6719 173.938 50.875L173.859 52.1641H173.086V50.3984C173.451 50.0859 173.865 49.8411 174.328 49.6641C174.792 49.4818 175.318 49.3906 175.906 49.3906C176.901 49.3906 177.667 49.6406 178.203 50.1406C178.74 50.6406 179.008 51.3333 179.008 52.2188V56.2969C179.008 56.4635 179.013 56.6302 179.023 56.7969C179.034 56.9583 179.052 57.1198 179.078 57.2812L180.086 57.3203V58H178.242C178.18 57.6927 178.135 57.4453 178.109 57.2578C178.089 57.0703 178.076 56.8594 178.07 56.625C177.763 57.0781 177.357 57.4479 176.852 57.7344C176.346 58.0208 175.786 58.1641 175.172 58.1641ZM175.281 57.3438C175.859 57.3438 176.406 57.1927 176.922 56.8906C177.443 56.5833 177.826 56.1771 178.07 55.6719V53.8906H176.312C175.448 53.8906 174.771 54.0781 174.281 54.4531C173.792 54.8229 173.547 55.2786 173.547 55.8203C173.547 56.2734 173.703 56.6406 174.016 56.9219C174.328 57.2031 174.75 57.3438 175.281 57.3438ZM181.305 58V57.3203L182.578 57.2188V50.3359L181.305 50.2344V49.5469H183.398L183.5 50.8359L183.508 51.0625C183.747 50.5365 184.073 50.1276 184.484 49.8359C184.896 49.5391 185.388 49.3906 185.961 49.3906C186.102 49.3906 186.25 49.4036 186.406 49.4297C186.568 49.4505 186.685 49.474 186.758 49.5L186.641 50.3594L185.773 50.3047C185.174 50.2891 184.685 50.4609 184.305 50.8203C183.924 51.1797 183.661 51.6562 183.516 52.25V57.2188L184.789 57.3203V58H181.305ZM187.859 58V57.3203L189.133 57.2188V50.3359L187.859 50.2344V49.5469H189.961L190.039 51.0625C190.31 50.5312 190.674 50.1198 191.133 49.8281C191.591 49.5365 192.138 49.3906 192.773 49.3906C193.69 49.3906 194.388 49.6719 194.867 50.2344C195.346 50.7917 195.586 51.6667 195.586 52.8594V57.2188L196.859 57.3203V58H193.375V57.3203L194.648 57.2188V52.8672C194.648 51.888 194.469 51.1979 194.109 50.7969C193.75 50.3958 193.237 50.1953 192.57 50.1953C191.872 50.1953 191.32 50.3906 190.914 50.7812C190.508 51.1719 190.227 51.6823 190.07 52.3125V57.2188L191.344 57.3203V58H187.859ZM198.242 58V57.3203L199.516 57.2188V50.3359L198.242 50.2344V49.5469H200.453V57.2188L201.727 57.3203V58H198.242ZM199.406 47.1641V45.8125H200.453V47.1641H199.406ZM203.188 58V57.3203L204.461 57.2188V50.3359L203.188 50.2344V49.5469H205.289L205.367 51.0625C205.638 50.5312 206.003 50.1198 206.461 49.8281C206.919 49.5365 207.466 49.3906 208.102 49.3906C209.018 49.3906 209.716 49.6719 210.195 50.2344C210.674 50.7917 210.914 51.6667 210.914 52.8594V57.2188L212.188 57.3203V58H208.703V57.3203L209.977 57.2188V52.8672C209.977 51.888 209.797 51.1979 209.438 50.7969C209.078 50.3958 208.565 50.1953 207.898 50.1953C207.201 50.1953 206.648 50.3906 206.242 50.7812C205.836 51.1719 205.555 51.6823 205.398 52.3125V57.2188L206.672 57.3203V58H203.188ZM217.062 61.4141C216.651 61.4141 216.216 61.3646 215.758 61.2656C215.299 61.1667 214.898 61.0339 214.555 60.8672L214.805 60.0859C215.138 60.2474 215.49 60.3724 215.859 60.4609C216.234 60.5495 216.63 60.5938 217.047 60.5938C217.849 60.5938 218.451 60.3542 218.852 59.875C219.258 59.401 219.461 58.7396 219.461 57.8906V56.8594C219.18 57.2708 218.818 57.5911 218.375 57.8203C217.938 58.0495 217.427 58.1641 216.844 58.1641C216.167 58.1641 215.586 57.9922 215.102 57.6484C214.617 57.3047 214.245 56.8229 213.984 56.2031C213.724 55.5781 213.594 54.8464 213.594 54.0078V53.8438C213.594 52.9427 213.724 52.1589 213.984 51.4922C214.245 50.8255 214.617 50.3099 215.102 49.9453C215.591 49.5755 216.177 49.3906 216.859 49.3906C217.464 49.3906 217.987 49.5208 218.43 49.7812C218.872 50.0417 219.232 50.4062 219.508 50.875L219.609 49.5469H220.398V57.8906C220.398 58.6146 220.266 59.2396 220 59.7656C219.74 60.2917 219.359 60.6979 218.859 60.9844C218.359 61.2708 217.76 61.4141 217.062 61.4141ZM217.016 57.3594C217.63 57.3594 218.138 57.2188 218.539 56.9375C218.945 56.6562 219.253 56.2708 219.461 55.7812V51.9141C219.263 51.4193 218.971 51.0104 218.586 50.6875C218.201 50.3594 217.682 50.1953 217.031 50.1953C216.484 50.1953 216.026 50.3516 215.656 50.6641C215.286 50.9714 215.008 51.3984 214.82 51.9453C214.633 52.4922 214.539 53.125 214.539 53.8438V54.0078C214.539 55.0286 214.745 55.8438 215.156 56.4531C215.573 57.0573 216.193 57.3594 217.016 57.3594ZM220.211 50.3516L219.906 49.5469H221.484V50.2266L220.211 50.3516ZM226.242 61.25V60.5625L227.484 60.4609V50.3359L226.211 50.2344V49.5469H228.266L228.383 50.8359C228.664 50.3776 229.026 50.0234 229.469 49.7734C229.917 49.5182 230.443 49.3906 231.047 49.3906C231.724 49.3906 232.305 49.5755 232.789 49.9453C233.279 50.3099 233.651 50.8255 233.906 51.4922C234.167 52.1589 234.297 52.9427 234.297 53.8438V54.0078C234.297 54.8516 234.167 55.5833 233.906 56.2031C233.651 56.8229 233.281 57.3047 232.797 57.6484C232.318 57.9922 231.742 58.1641 231.07 58.1641C230.471 58.1641 229.948 58.0521 229.5 57.8281C229.057 57.6042 228.698 57.2917 228.422 56.8906V60.4609L229.727 60.5625V61.25H226.242ZM230.852 57.3828C231.669 57.3828 232.289 57.0755 232.711 56.4609C233.138 55.8464 233.352 55.0286 233.352 54.0078V53.8438C233.352 53.125 233.255 52.4922 233.062 51.9453C232.87 51.3984 232.586 50.9714 232.211 50.6641C231.841 50.3516 231.383 50.1953 230.836 50.1953C230.195 50.1953 229.68 50.3516 229.289 50.6641C228.904 50.9766 228.615 51.3724 228.422 51.8516V55.8828C228.62 56.3464 228.922 56.7135 229.328 56.9844C229.734 57.25 230.242 57.3828 230.852 57.3828ZM235.516 58V57.3203L236.789 57.2188V46.6016L235.516 46.5V45.8125H237.727V57.2188L239 57.3203V58H235.516ZM243.016 58.1641C242.214 58.1641 241.586 57.9505 241.133 57.5234C240.68 57.0964 240.453 56.5182 240.453 55.7891C240.453 55.2682 240.604 54.8125 240.906 54.4219C241.208 54.026 241.635 53.7188 242.188 53.5C242.745 53.2812 243.404 53.1719 244.164 53.1719H245.914V52.2031C245.914 51.5938 245.732 51.1042 245.367 50.7344C245.008 50.3594 244.464 50.1719 243.734 50.1719C243.323 50.1719 242.953 50.2396 242.625 50.375C242.302 50.5052 242.021 50.6719 241.781 50.875L241.703 52.1641H240.93V50.3984C241.294 50.0859 241.708 49.8411 242.172 49.6641C242.635 49.4818 243.161 49.3906 243.75 49.3906C244.745 49.3906 245.51 49.6406 246.047 50.1406C246.583 50.6406 246.852 51.3333 246.852 52.2188V56.2969C246.852 56.4635 246.857 56.6302 246.867 56.7969C246.878 56.9583 246.896 57.1198 246.922 57.2812L247.93 57.3203V58H246.086C246.023 57.6927 245.979 57.4453 245.953 57.2578C245.932 57.0703 245.919 56.8594 245.914 56.625C245.607 57.0781 245.201 57.4479 244.695 57.7344C244.19 58.0208 243.63 58.1641 243.016 58.1641ZM243.125 57.3438C243.703 57.3438 244.25 57.1927 244.766 56.8906C245.286 56.5833 245.669 56.1771 245.914 55.6719V53.8906H244.156C243.292 53.8906 242.615 54.0781 242.125 54.4531C241.635 54.8229 241.391 55.2786 241.391 55.8203C241.391 56.2734 241.547 56.6406 241.859 56.9219C242.172 57.2031 242.594 57.3438 243.125 57.3438ZM252.211 58.1484C251.617 58.1484 251.156 57.9661 250.828 57.6016C250.5 57.2318 250.336 56.638 250.336 55.8203V50.3047H248.875V49.5469H250.336V47.375H251.273V49.5469H253.242V50.3047H251.273V55.8203C251.273 56.3828 251.372 56.7891 251.57 57.0391C251.773 57.2839 252.042 57.4062 252.375 57.4062C252.552 57.4062 252.727 57.3958 252.898 57.375C253.07 57.349 253.247 57.3229 253.43 57.2969L253.57 57.9688C253.383 58.026 253.169 58.0703 252.93 58.1016C252.69 58.1328 252.451 58.1484 252.211 58.1484ZM254.906 58V57.3203L256.18 57.2188V50.3047H254.773V49.5469H256.18V48.3047C256.18 47.4609 256.391 46.8073 256.812 46.3438C257.24 45.8802 257.836 45.6484 258.602 45.6484C258.779 45.6484 258.958 45.6615 259.141 45.6875C259.328 45.7083 259.516 45.7448 259.703 45.7969L259.578 46.5547C259.448 46.5234 259.31 46.5 259.164 46.4844C259.023 46.4635 258.867 46.4531 258.695 46.4531C258.185 46.4531 257.794 46.6146 257.523 46.9375C257.253 47.2604 257.117 47.7161 257.117 48.3047V49.5469H259.172V50.3047H257.117V57.2188L258.469 57.3203V58H254.906ZM264.266 58.1641C263.505 58.1641 262.844 57.9844 262.281 57.625C261.724 57.2604 261.289 56.7578 260.977 56.1172C260.669 55.4714 260.516 54.7344 260.516 53.9062V53.6484C260.516 52.8203 260.669 52.0859 260.977 51.4453C261.289 50.8047 261.724 50.3021 262.281 49.9375C262.844 49.5729 263.5 49.3906 264.25 49.3906C265.005 49.3906 265.661 49.5729 266.219 49.9375C266.781 50.3021 267.216 50.8047 267.523 51.4453C267.836 52.0807 267.992 52.8151 267.992 53.6484V53.9062C267.992 54.7396 267.836 55.4766 267.523 56.1172C267.216 56.7578 266.781 57.2604 266.219 57.625C265.661 57.9844 265.01 58.1641 264.266 58.1641ZM264.266 57.3828C264.844 57.3828 265.341 57.2292 265.758 56.9219C266.174 56.6146 266.495 56.1979 266.719 55.6719C266.943 55.1458 267.055 54.5573 267.055 53.9062V53.6484C267.055 53.0026 266.943 52.4167 266.719 51.8906C266.495 51.3646 266.172 50.9479 265.75 50.6406C265.333 50.3333 264.833 50.1797 264.25 50.1797C263.667 50.1797 263.164 50.3333 262.742 50.6406C262.326 50.9479 262.005 51.3646 261.781 51.8906C261.562 52.4167 261.453 53.0026 261.453 53.6484V53.9062C261.453 54.5625 261.562 55.1536 261.781 55.6797C262.005 56.2005 262.326 56.6146 262.742 56.9219C263.164 57.2292 263.672 57.3828 264.266 57.3828ZM269.352 58V57.3203L270.625 57.2188V50.3359L269.352 50.2344V49.5469H271.445L271.547 50.8359L271.555 51.0625C271.794 50.5365 272.12 50.1276 272.531 49.8359C272.943 49.5391 273.435 49.3906 274.008 49.3906C274.148 49.3906 274.297 49.4036 274.453 49.4297C274.615 49.4505 274.732 49.474 274.805 49.5L274.688 50.3594L273.82 50.3047C273.221 50.2891 272.732 50.4609 272.352 50.8203C271.971 51.1797 271.708 51.6562 271.562 52.25V57.2188L272.836 57.3203V58H269.352ZM275.906 58V57.3203L277.18 57.2188V50.3359L275.906 50.2344V49.5469H278.016L278.094 50.9922C278.354 50.487 278.711 50.0938 279.164 49.8125C279.622 49.5312 280.167 49.3906 280.797 49.3906C281.448 49.3906 281.99 49.5521 282.422 49.875C282.854 50.1927 283.164 50.6823 283.352 51.3438C283.591 50.7344 283.948 50.2552 284.422 49.9062C284.901 49.5573 285.479 49.3828 286.156 49.3828C287.057 49.3828 287.753 49.6849 288.242 50.2891C288.737 50.888 288.984 51.8151 288.984 53.0703V57.2109L290.258 57.3125V57.9922H286.766V57.3125L288.039 57.2109V53.0547C288.039 52.0078 287.854 51.2682 287.484 50.8359C287.12 50.4036 286.612 50.1875 285.961 50.1875C285.227 50.1875 284.661 50.4219 284.266 50.8906C283.87 51.3542 283.633 51.9427 283.555 52.6562V57.2188L284.828 57.3203V58H281.336V57.3203L282.609 57.2188V53.0547C282.609 52.0286 282.422 51.2969 282.047 50.8594C281.677 50.4167 281.167 50.1953 280.516 50.1953C279.828 50.1953 279.292 50.3776 278.906 50.7422C278.526 51.1068 278.266 51.5911 278.125 52.1953V57.2188L279.398 57.3203V58H275.906ZM291.867 58V56.7266H292.938V58H291.867ZM298.891 58V57.3203L300.164 57.2188V47.4141L298.891 47.3125V46.625H300.164H303.688C304.49 46.625 305.169 46.763 305.727 47.0391C306.284 47.3151 306.708 47.7031 307 48.2031C307.292 48.6979 307.438 49.2786 307.438 49.9453C307.438 50.6172 307.292 51.2031 307 51.7031C306.708 52.1979 306.284 52.5833 305.727 52.8594C305.169 53.1302 304.49 53.2656 303.688 53.2656H301.102V57.2188L302.375 57.3203V58H298.891ZM301.102 52.4844H303.688C304.625 52.4844 305.328 52.2448 305.797 51.7656C306.266 51.2812 306.5 50.6797 306.5 49.9609C306.5 49.2266 306.266 48.6198 305.797 48.1406C305.333 47.6562 304.63 47.4141 303.688 47.4141H301.102V52.4844ZM312.594 58.1641C311.833 58.1641 311.172 57.9844 310.609 57.625C310.052 57.2604 309.617 56.7578 309.305 56.1172C308.997 55.4714 308.844 54.7344 308.844 53.9062V53.6484C308.844 52.8203 308.997 52.0859 309.305 51.4453C309.617 50.8047 310.052 50.3021 310.609 49.9375C311.172 49.5729 311.828 49.3906 312.578 49.3906C313.333 49.3906 313.99 49.5729 314.547 49.9375C315.109 50.3021 315.544 50.8047 315.852 51.4453C316.164 52.0807 316.32 52.8151 316.32 53.6484V53.9062C316.32 54.7396 316.164 55.4766 315.852 56.1172C315.544 56.7578 315.109 57.2604 314.547 57.625C313.99 57.9844 313.339 58.1641 312.594 58.1641ZM312.594 57.3828C313.172 57.3828 313.669 57.2292 314.086 56.9219C314.503 56.6146 314.823 56.1979 315.047 55.6719C315.271 55.1458 315.383 54.5573 315.383 53.9062V53.6484C315.383 53.0026 315.271 52.4167 315.047 51.8906C314.823 51.3646 314.5 50.9479 314.078 50.6406C313.661 50.3333 313.161 50.1797 312.578 50.1797C311.995 50.1797 311.492 50.3333 311.07 50.6406C310.654 50.9479 310.333 51.3646 310.109 51.8906C309.891 52.4167 309.781 53.0026 309.781 53.6484V53.9062C309.781 54.5625 309.891 55.1536 310.109 55.6797C310.333 56.2005 310.654 56.6146 311.07 56.9219C311.492 57.2292 312 57.3828 312.594 57.3828ZM320.625 58L318.266 50.2812L317.312 50.2344V49.5469H320.32V50.2344L319.219 50.3125L320.672 55.2656L321.062 56.6562H321.109L321.562 55.2656L323.492 49.5469H324.32L326.242 55.2578L326.727 56.7422L326.773 56.7344L327.227 55.2578L328.68 50.3047L327.57 50.2344V49.5469H330.547V50.2344L329.594 50.2969L327.242 58H326.336L324.359 52.2344L323.93 50.8438L323.883 50.8516L323.461 52.2344L321.469 58H320.625ZM335.336 58.1641C334.612 58.1641 333.974 57.9896 333.422 57.6406C332.87 57.2865 332.438 56.7995 332.125 56.1797C331.812 55.5547 331.656 54.8359 331.656 54.0234V53.5938C331.656 52.7865 331.812 52.0677 332.125 51.4375C332.438 50.8021 332.859 50.3021 333.391 49.9375C333.927 49.5729 334.523 49.3906 335.18 49.3906C335.872 49.3906 336.464 49.5391 336.953 49.8359C337.448 50.1328 337.826 50.5521 338.086 51.0938C338.352 51.6302 338.484 52.263 338.484 52.9922V53.7891H332.625L332.609 54.1328C332.615 54.7578 332.729 55.3151 332.953 55.8047C333.182 56.2943 333.5 56.6797 333.906 56.9609C334.318 57.2422 334.794 57.3828 335.336 57.3828C335.867 57.3828 336.333 57.2995 336.734 57.1328C337.141 56.9609 337.497 56.7292 337.805 56.4375L338.203 57.0781C337.875 57.3906 337.477 57.651 337.008 57.8594C336.544 58.0625 335.987 58.1641 335.336 58.1641ZM332.688 53.0078H337.547V52.7734C337.547 52.2786 337.451 51.8359 337.258 51.4453C337.07 51.0495 336.799 50.7396 336.445 50.5156C336.096 50.2917 335.674 50.1797 335.18 50.1797C334.732 50.1797 334.328 50.3021 333.969 50.5469C333.609 50.7865 333.315 51.1172 333.086 51.5391C332.862 51.9557 332.724 52.4297 332.672 52.9609L332.688 53.0078ZM339.93 58V57.3203L341.203 57.2188V50.3359L339.93 50.2344V49.5469H342.023L342.125 50.8359L342.133 51.0625C342.372 50.5365 342.698 50.1276 343.109 49.8359C343.521 49.5391 344.013 49.3906 344.586 49.3906C344.727 49.3906 344.875 49.4036 345.031 49.4297C345.193 49.4505 345.31 49.474 345.383 49.5L345.266 50.3594L344.398 50.3047C343.799 50.2891 343.31 50.4609 342.93 50.8203C342.549 51.1797 342.286 51.6562 342.141 52.25V57.2188L343.414 57.3203V58H339.93ZM350.102 58.1641C349.378 58.1641 348.74 57.9896 348.188 57.6406C347.635 57.2865 347.203 56.7995 346.891 56.1797C346.578 55.5547 346.422 54.8359 346.422 54.0234V53.5938C346.422 52.7865 346.578 52.0677 346.891 51.4375C347.203 50.8021 347.625 50.3021 348.156 49.9375C348.693 49.5729 349.289 49.3906 349.945 49.3906C350.638 49.3906 351.229 49.5391 351.719 49.8359C352.214 50.1328 352.591 50.5521 352.852 51.0938C353.117 51.6302 353.25 52.263 353.25 52.9922V53.7891H347.391L347.375 54.1328C347.38 54.7578 347.495 55.3151 347.719 55.8047C347.948 56.2943 348.266 56.6797 348.672 56.9609C349.083 57.2422 349.56 57.3828 350.102 57.3828C350.633 57.3828 351.099 57.2995 351.5 57.1328C351.906 56.9609 352.263 56.7292 352.57 56.4375L352.969 57.0781C352.641 57.3906 352.242 57.651 351.773 57.8594C351.31 58.0625 350.753 58.1641 350.102 58.1641ZM347.453 53.0078H352.312V52.7734C352.312 52.2786 352.216 51.8359 352.023 51.4453C351.836 51.0495 351.565 50.7396 351.211 50.5156C350.862 50.2917 350.44 50.1797 349.945 50.1797C349.497 50.1797 349.094 50.3021 348.734 50.5469C348.375 50.7865 348.081 51.1172 347.852 51.5391C347.628 51.9557 347.49 52.4297 347.438 52.9609L347.453 53.0078ZM358.148 58.1641C357.477 58.1641 356.898 57.9922 356.414 57.6484C355.93 57.3047 355.56 56.8229 355.305 56.2031C355.049 55.5833 354.922 54.8516 354.922 54.0078V53.8438C354.922 52.9427 355.049 52.1589 355.305 51.4922C355.56 50.8255 355.93 50.3099 356.414 49.9453C356.904 49.5755 357.487 49.3906 358.164 49.3906C358.753 49.3906 359.263 49.5156 359.695 49.7656C360.133 50.0156 360.492 50.3646 360.773 50.8125V46.6016L359.5 46.5V45.8125H360.773H361.711V57.2188L362.984 57.3203V58H360.875L360.805 56.8047C360.529 57.2318 360.167 57.5651 359.719 57.8047C359.271 58.0443 358.747 58.1641 358.148 58.1641ZM358.32 57.3594C358.93 57.3594 359.438 57.2214 359.844 56.9453C360.25 56.6693 360.56 56.2943 360.773 55.8203V51.875C360.57 51.3854 360.273 50.9844 359.883 50.6719C359.492 50.3542 358.977 50.1953 358.336 50.1953C357.789 50.1953 357.333 50.349 356.969 50.6562C356.604 50.9635 356.328 51.3906 356.141 51.9375C355.958 52.4844 355.867 53.1198 355.867 53.8438V54.0078C355.867 55.0286 356.07 55.8438 356.477 56.4531C356.888 57.0573 357.503 57.3594 358.32 57.3594ZM372.352 58.1641C371.732 58.1641 371.195 58.0417 370.742 57.7969C370.294 57.5521 369.932 57.2109 369.656 56.7734L369.562 58H368.758V46.6016L367.484 46.5V45.8125H369.695V50.8359C369.971 50.3828 370.328 50.0286 370.766 49.7734C371.208 49.5182 371.732 49.3906 372.336 49.3906C373.013 49.3906 373.594 49.5755 374.078 49.9453C374.562 50.3099 374.932 50.8255 375.188 51.4922C375.448 52.1589 375.578 52.9427 375.578 53.8438V54.0078C375.578 54.8516 375.448 55.5833 375.188 56.2031C374.932 56.8229 374.562 57.3047 374.078 57.6484C373.599 57.9922 373.023 58.1641 372.352 58.1641ZM372.172 57.3594C372.984 57.3594 373.596 57.0573 374.008 56.4531C374.424 55.8438 374.633 55.0286 374.633 54.0078V53.8438C374.633 53.1198 374.539 52.4844 374.352 51.9375C374.169 51.3906 373.893 50.9635 373.523 50.6562C373.159 50.349 372.703 50.1953 372.156 50.1953C371.495 50.1953 370.966 50.362 370.57 50.6953C370.18 51.0234 369.888 51.4401 369.695 51.9453V55.7578C369.893 56.2474 370.201 56.638 370.617 56.9297C371.034 57.2161 371.552 57.3594 372.172 57.3594ZM378.461 61.4141C378.352 61.4141 378.219 61.401 378.062 61.375C377.911 61.3542 377.797 61.3333 377.719 61.3125L377.828 60.5391C377.901 60.5495 378.003 60.5599 378.133 60.5703C378.268 60.5859 378.367 60.5938 378.43 60.5938C378.836 60.5938 379.159 60.4583 379.398 60.1875C379.638 59.9219 379.857 59.5417 380.055 59.0469L380.492 57.8984L377.391 50.2891L376.477 50.2344V49.5469H379.453V50.2344L378.383 50.3047L380.555 55.7578L380.906 56.7188H380.953L383.367 50.3047L382.266 50.2344V49.5469H385.219V50.2344L384.32 50.2891L380.852 59.3594C380.695 59.7552 380.518 60.1094 380.32 60.4219C380.122 60.7344 379.875 60.9766 379.578 61.1484C379.281 61.3255 378.909 61.4141 378.461 61.4141ZM392.812 58V57.3203L394.086 57.2188V47.3906H390.891L390.789 49.125H390.023V46.625H399.078V49.125H398.32L398.211 47.3906H395.023V57.2188L396.297 57.3203V58H392.812ZM405.125 58.1641C404.406 58.1641 403.755 58.026 403.172 57.75C402.589 57.474 402.089 57.0807 401.672 56.5703C401.255 56.0599 400.935 55.4531 400.711 54.75C400.487 54.0417 400.375 53.2552 400.375 52.3906V52.2422C400.375 51.3776 400.484 50.5938 400.703 49.8906C400.927 49.1823 401.247 48.5729 401.664 48.0625C402.081 47.5469 402.581 47.151 403.164 46.875C403.747 46.599 404.398 46.4609 405.117 46.4609C405.852 46.4609 406.51 46.599 407.094 46.875C407.682 47.151 408.182 47.5469 408.594 48.0625C409.01 48.5729 409.326 49.1823 409.539 49.8906C409.758 50.5938 409.867 51.3776 409.867 52.2422V52.3906C409.867 53.2552 409.758 54.0417 409.539 54.75C409.326 55.4531 409.013 56.0599 408.602 56.5703C408.19 57.0807 407.69 57.474 407.102 57.75C406.518 58.026 405.859 58.1641 405.125 58.1641ZM405.125 57.3438C405.948 57.3438 406.641 57.138 407.203 56.7266C407.771 56.3151 408.201 55.737 408.492 54.9922C408.784 54.2474 408.93 53.3802 408.93 52.3906V52.2266C408.93 51.237 408.781 50.3724 408.484 49.6328C408.193 48.8932 407.763 48.3177 407.195 47.9062C406.628 47.4896 405.935 47.2812 405.117 47.2812C404.331 47.2812 403.654 47.4896 403.086 47.9062C402.518 48.3177 402.081 48.8958 401.773 49.6406C401.471 50.3802 401.32 51.2422 401.32 52.2266V52.3906C401.32 53.3802 401.471 54.2474 401.773 54.9922C402.081 55.737 402.518 56.3151 403.086 56.7266C403.659 57.138 404.339 57.3438 405.125 57.3438ZM411.32 58V57.3203L412.594 57.2188V47.4141L411.32 47.3125V46.625H412.594H413.539L420.039 56.4062L420.086 56.3906V47.4141L418.758 47.3125V46.625H420.969H422.242V47.3125L420.969 47.4141V58H420.094L413.523 48.1797L413.477 48.1953V57.2188L414.805 57.3203V58H411.32Z" fill="#FAFAFA"/>
<path d="M93.9297 33V30.0947L96.5361 29.5469V12.3145L93.9297 11.75V8.82812H96.5361H104.538C106.696 8.82812 108.6 9.33724 110.249 10.3555C111.898 11.3626 113.182 12.7627 114.101 14.5557C115.03 16.3376 115.495 18.3851 115.495 20.6982V21.1465C115.495 23.4375 115.036 25.4795 114.117 27.2725C113.21 29.0544 111.937 30.4544 110.299 31.4727C108.661 32.4909 106.763 33 104.604 33H93.9297ZM101.384 29.2979H104.355C105.695 29.2979 106.829 28.9492 107.759 28.252C108.688 27.5436 109.397 26.5752 109.884 25.3467C110.382 24.1182 110.631 22.7181 110.631 21.1465V20.6816C110.631 19.0879 110.382 17.6823 109.884 16.4648C109.397 15.2363 108.688 14.279 107.759 13.5928C106.829 12.8955 105.695 12.5469 104.355 12.5469H101.384V29.2979ZM117.57 33V30.0947L119.911 29.5967V18.457L117.321 17.959V15.0371H124.759V29.5967L127.083 30.0947V33H117.57ZM119.745 11.2354V7.10156H124.759V11.2354H119.745ZM134.72 33.3486C132.938 33.3486 131.521 32.8727 130.47 31.9209C129.418 30.958 128.893 29.652 128.893 28.0029C128.893 26.874 129.197 25.8835 129.806 25.0312C130.425 24.179 131.333 23.5094 132.528 23.0225C133.735 22.5355 135.218 22.292 136.978 22.292H139.352V20.9639C139.352 20.1006 139.097 19.4033 138.588 18.8721C138.09 18.3298 137.337 18.0586 136.33 18.0586C135.81 18.0586 135.345 18.125 134.936 18.2578C134.526 18.3796 134.15 18.5566 133.807 18.7891L133.425 21.1631H129.938L129.872 16.498C130.813 15.9668 131.831 15.5352 132.927 15.2031C134.022 14.8711 135.245 14.7051 136.596 14.7051C138.942 14.7051 140.796 15.2529 142.157 16.3486C143.519 17.4333 144.199 18.9883 144.199 21.0137V28.418C144.199 28.6615 144.199 28.9049 144.199 29.1484C144.21 29.3809 144.232 29.6077 144.266 29.8291L146.142 30.0947V33H140.132C140.01 32.6901 139.888 32.3581 139.767 32.0039C139.645 31.6497 139.556 31.2956 139.501 30.9414C138.925 31.6719 138.245 32.2585 137.459 32.7012C136.684 33.1328 135.771 33.3486 134.72 33.3486ZM136.015 29.7627C136.69 29.7627 137.332 29.6133 137.94 29.3145C138.549 29.0046 139.02 28.6006 139.352 28.1025V25.2637H136.961C135.898 25.2637 135.09 25.5072 134.537 25.9941C133.995 26.4811 133.724 27.0677 133.724 27.7539C133.724 28.3958 133.923 28.8939 134.321 29.248C134.731 29.5911 135.295 29.7627 136.015 29.7627ZM147.686 33V30.0947L150.026 29.5967V18.457L147.437 17.959V15.0371H154.525L154.725 17.4111C155.3 16.5479 156.02 15.8838 156.883 15.4189C157.757 14.943 158.764 14.7051 159.904 14.7051C161.055 14.7051 162.04 14.9596 162.859 15.4688C163.689 15.9779 164.309 16.7471 164.719 17.7764C165.272 16.8135 165.992 16.0609 166.877 15.5186C167.762 14.9762 168.803 14.7051 169.998 14.7051C171.769 14.7051 173.163 15.3083 174.182 16.5146C175.211 17.721 175.726 19.5583 175.726 22.0264V29.5967L178.066 30.0947V33H168.786V30.0947L170.878 29.5967V22.0098C170.878 20.6816 170.657 19.763 170.214 19.2539C169.782 18.7337 169.151 18.4736 168.321 18.4736C167.569 18.4736 166.932 18.6895 166.412 19.1211C165.892 19.5417 165.516 20.1006 165.283 20.7979V29.5967L167.242 30.0947V33H158.493V30.0947L160.452 29.5967V22.0098C160.452 20.7148 160.231 19.8018 159.788 19.2705C159.356 18.7393 158.715 18.4736 157.862 18.4736C157.176 18.4736 156.584 18.612 156.086 18.8887C155.588 19.1654 155.178 19.5638 154.857 20.084V29.5967L156.949 30.0947V33H147.686ZM188.077 33.3486C186.306 33.3486 184.785 32.9613 183.512 32.1865C182.239 31.4118 181.265 30.3382 180.59 28.9658C179.915 27.5824 179.577 25.9941 179.577 24.2012V23.8525C179.577 22.0706 179.915 20.4935 180.59 19.1211C181.265 17.7376 182.233 16.6585 183.495 15.8838C184.768 15.098 186.284 14.7051 188.044 14.7051C189.826 14.7051 191.348 15.098 192.609 15.8838C193.871 16.6585 194.84 17.7321 195.515 19.1045C196.19 20.4769 196.527 22.0596 196.527 23.8525V24.2012C196.527 25.9941 196.19 27.5824 195.515 28.9658C194.84 30.3382 193.871 31.4118 192.609 32.1865C191.348 32.9613 189.837 33.3486 188.077 33.3486ZM188.077 29.6299C188.918 29.6299 189.604 29.403 190.136 28.9492C190.667 28.4954 191.06 27.8646 191.314 27.0566C191.569 26.2376 191.696 25.2858 191.696 24.2012V23.8525C191.696 22.79 191.569 21.8548 191.314 21.0469C191.06 20.2279 190.661 19.5915 190.119 19.1377C189.588 18.6729 188.896 18.4404 188.044 18.4404C187.214 18.4404 186.528 18.6729 185.985 19.1377C185.443 19.5915 185.045 20.2279 184.79 21.0469C184.547 21.8548 184.425 22.79 184.425 23.8525V24.2012C184.425 25.2858 184.547 26.2376 184.79 27.0566C185.045 27.8757 185.443 28.512 185.985 28.9658C186.528 29.4085 187.225 29.6299 188.077 29.6299ZM198.52 33V30.0947L200.844 29.5967V18.457L198.271 17.959V15.0371H205.359L205.575 17.6104C206.173 16.6917 206.909 15.9779 207.783 15.4688C208.669 14.9596 209.676 14.7051 210.805 14.7051C212.587 14.7051 213.981 15.2751 214.988 16.415C215.995 17.555 216.499 19.3424 216.499 21.7773V29.5967L218.823 30.0947V33H209.56V30.0947L211.635 29.5967V21.7939C211.635 20.5876 211.397 19.7354 210.921 19.2373C210.445 18.7282 209.737 18.4736 208.796 18.4736C208.099 18.4736 207.49 18.623 206.97 18.9219C206.461 19.2096 206.035 19.6247 205.691 20.167V29.5967L207.65 30.0947V33H198.52ZM227.124 33.3486C225.696 33.3486 224.468 32.9834 223.438 32.2529C222.42 31.5114 221.64 30.4821 221.098 29.165C220.555 27.8369 220.284 26.2874 220.284 24.5166V24.168C220.284 22.2754 220.555 20.6208 221.098 19.2041C221.651 17.7874 222.437 16.6862 223.455 15.9004C224.473 15.1035 225.691 14.7051 227.107 14.7051C228.092 14.7051 228.956 14.9043 229.697 15.3027C230.439 15.6901 231.081 16.2435 231.623 16.9629V10.5215L229.033 10.0234V7.10156H231.623H236.471V29.5967L238.795 30.0947V33H232.271L231.905 30.8086C231.341 31.6387 230.666 32.2695 229.88 32.7012C229.105 33.1328 228.187 33.3486 227.124 33.3486ZM228.568 29.5801C229.243 29.5801 229.836 29.4362 230.345 29.1484C230.854 28.8607 231.28 28.4456 231.623 27.9033V20.2832C231.291 19.7077 230.87 19.265 230.361 18.9551C229.852 18.6341 229.266 18.4736 228.602 18.4736C227.794 18.4736 227.13 18.7171 226.609 19.2041C226.1 19.68 225.724 20.3441 225.48 21.1963C225.248 22.0485 225.132 23.0391 225.132 24.168V24.5166C225.132 26.0882 225.397 27.3278 225.929 28.2354C226.46 29.1318 227.34 29.5801 228.568 29.5801ZM248.042 33.3486C246.703 33.3486 245.452 33.2214 244.29 32.9668C243.139 32.7122 242.032 32.347 240.97 31.8711L240.92 26.791H244.29L244.938 29.3809C245.314 29.569 245.723 29.7184 246.166 29.8291C246.62 29.9398 247.134 29.9951 247.71 29.9951C248.795 29.9951 249.558 29.818 250.001 29.4639C250.444 29.1097 250.665 28.667 250.665 28.1357C250.665 27.6377 250.427 27.2005 249.951 26.8242C249.486 26.4368 248.551 26.0993 247.146 25.8115C245.021 25.3688 243.454 24.6826 242.447 23.7529C241.44 22.8232 240.937 21.6335 240.937 20.1836C240.937 19.1875 241.186 18.2799 241.684 17.4609C242.193 16.6419 242.962 15.9834 243.991 15.4854C245.032 14.9873 246.36 14.7383 247.976 14.7383C249.326 14.7383 250.56 14.8711 251.678 15.1367C252.807 15.3913 253.753 15.7288 254.517 16.1494L254.566 21.0635H251.213L250.698 18.7061C250.399 18.4847 250.045 18.3187 249.636 18.208C249.237 18.0973 248.784 18.042 248.274 18.042C247.422 18.042 246.769 18.2135 246.315 18.5566C245.862 18.8997 245.635 19.3424 245.635 19.8848C245.635 20.1947 245.712 20.4824 245.867 20.748C246.033 21.0137 246.354 21.2627 246.83 21.4951C247.306 21.7275 247.998 21.9489 248.905 22.1592C251.13 22.6683 252.751 23.349 253.77 24.2012C254.788 25.0423 255.297 26.2266 255.297 27.7539C255.297 29.4251 254.688 30.7754 253.471 31.8047C252.264 32.834 250.455 33.3486 248.042 33.3486Z" fill="#FAFAFA"/>
<path d="M21.9886 45.0306L3 4H32M21.9886 45.0306H32M21.9886 45.0306V57.1033L27.9872 62H36.592L42.0114 57.1033V45.0306M42.0114 45.0306L61 4H32M42.0114 45.0306H32M32 4V45.0306" stroke="#2F80ED" stroke-width="5" stroke-linejoin="round"/>
</svg>
