<svg width="120" height="88" viewBox="0 0 120 88" fill="none" xmlns="http://www.w3.org/2000/svg">
<g filter="url(#filter0_dd_103_560)">
<path d="M5 32C5 27.5817 8.58172 24 13 24H107C111.418 24 115 27.5817 115 32V56C115 60.4183 111.418 64 107 64H13C8.58172 64 5 60.4183 5 56V32Z" fill="#2F80ED"/>
<path d="M30.8574 49V48.0391L31.7773 47.8633V41.6113L30.8574 41.4355V40.4688H31.7773H33.3711H34.3848V41.4355L33.3711 41.6113V47.7812H35.9082L36.002 46.5098H37.2207V49H30.8574ZM37.877 49V48.0391L38.7266 47.8633V43.8027L37.8066 43.627V42.6602H40.3203V47.8633L41.1699 48.0391V49H37.877ZM38.668 41.2715V39.8594H40.3203V41.2715H38.668ZM44.2109 49L42.2246 43.7324L41.5449 43.627V42.6602H44.5332V43.627L43.8359 43.7441L44.8848 46.7734L45.0312 47.2715H45.0664L45.2363 46.7734L46.3379 43.7441L45.5469 43.627V42.6602H48.5293V43.627L47.832 43.7441L45.7988 49H44.2109ZM51.9219 49.123C51.3203 49.123 50.7949 48.9902 50.3457 48.7246C49.9004 48.4551 49.5547 48.0859 49.3086 47.6172C49.0625 47.1445 48.9395 46.6055 48.9395 46V45.7598C48.9395 45.1387 49.0566 44.5859 49.291 44.1016C49.5293 43.6133 49.8613 43.2324 50.2871 42.959C50.7129 42.6816 51.2051 42.543 51.7637 42.543C52.3379 42.543 52.8203 42.6582 53.2109 42.8887C53.6016 43.1152 53.8965 43.4414 54.0957 43.8672C54.2949 44.293 54.3945 44.8047 54.3945 45.4023V46.2871H50.5918L50.5801 46.3223C50.5957 46.627 50.6641 46.8984 50.7852 47.1367C50.9062 47.3711 51.0762 47.5566 51.2949 47.6934C51.5137 47.8301 51.7793 47.8984 52.0918 47.8984C52.4238 47.8984 52.7266 47.8555 53 47.7695C53.2773 47.6836 53.541 47.5566 53.791 47.3887L54.248 48.3789C53.9941 48.5898 53.6719 48.7676 53.2812 48.9121C52.8906 49.0527 52.4375 49.123 51.9219 49.123ZM50.6094 45.2031H52.8945V45.0508C52.8945 44.7852 52.8555 44.5547 52.7773 44.3594C52.6992 44.1602 52.5781 44.0059 52.4141 43.8965C52.2539 43.7871 52.0449 43.7324 51.7871 43.7324C51.5527 43.7324 51.3516 43.7969 51.1836 43.9258C51.0156 44.0508 50.8828 44.2227 50.7852 44.4414C50.6875 44.6562 50.623 44.9004 50.5918 45.1738L50.6094 45.2031ZM60.6113 49.123C60.1074 49.123 59.6738 48.9941 59.3105 48.7363C58.9473 48.4785 58.668 48.1172 58.4727 47.6523C58.2812 47.1836 58.1855 46.6387 58.1855 46.0176V45.8945C58.1855 45.2266 58.2812 44.6406 58.4727 44.1367C58.668 43.6328 58.9473 43.2422 59.3105 42.9648C59.6738 42.6836 60.1055 42.543 60.6055 42.543C60.9648 42.543 61.2773 42.6133 61.543 42.7539C61.8086 42.8906 62.0371 43.0879 62.2285 43.3457V41.002L61.3086 40.8262V39.8594H62.2285H63.8223V47.8633L64.6719 48.0391V49H62.4453L62.3223 48.2324C62.123 48.5254 61.8828 48.748 61.6016 48.9004C61.3203 49.0488 60.9902 49.123 60.6113 49.123ZM61.0742 47.875C61.3359 47.875 61.5625 47.8184 61.7539 47.7051C61.9453 47.5918 62.1035 47.4297 62.2285 47.2188V44.4766C62.1074 44.2617 61.9512 44.0938 61.7598 43.9727C61.5684 43.8516 61.3438 43.791 61.0859 43.791C60.7852 43.791 60.5371 43.8809 60.3418 44.0605C60.1504 44.2363 60.0078 44.4824 59.9141 44.7988C59.8242 45.1113 59.7793 45.4766 59.7793 45.8945V46.0176C59.7793 46.5918 59.8809 47.0449 60.084 47.377C60.2871 47.709 60.6172 47.875 61.0742 47.875ZM68.2695 49.123C67.668 49.123 67.1426 48.9902 66.6934 48.7246C66.248 48.4551 65.9023 48.0859 65.6562 47.6172C65.4102 47.1445 65.2871 46.6055 65.2871 46V45.7598C65.2871 45.1387 65.4043 44.5859 65.6387 44.1016C65.877 43.6133 66.209 43.2324 66.6348 42.959C67.0605 42.6816 67.5527 42.543 68.1113 42.543C68.6855 42.543 69.168 42.6582 69.5586 42.8887C69.9492 43.1152 70.2441 43.4414 70.4434 43.8672C70.6426 44.293 70.7422 44.8047 70.7422 45.4023V46.2871H66.9395L66.9277 46.3223C66.9434 46.627 67.0117 46.8984 67.1328 47.1367C67.2539 47.3711 67.4238 47.5566 67.6426 47.6934C67.8613 47.8301 68.127 47.8984 68.4395 47.8984C68.7715 47.8984 69.0742 47.8555 69.3477 47.7695C69.625 47.6836 69.8887 47.5566 70.1387 47.3887L70.5957 48.3789C70.3418 48.5898 70.0195 48.7676 69.6289 48.9121C69.2383 49.0527 68.7852 49.123 68.2695 49.123ZM66.957 45.2031H69.2422V45.0508C69.2422 44.7852 69.2031 44.5547 69.125 44.3594C69.0469 44.1602 68.9258 44.0059 68.7617 43.8965C68.6016 43.7871 68.3926 43.7324 68.1348 43.7324C67.9004 43.7324 67.6992 43.7969 67.5312 43.9258C67.3633 44.0508 67.2305 44.2227 67.1328 44.4414C67.0352 44.6562 66.9707 44.9004 66.9395 45.1738L66.957 45.2031ZM71.5039 49V48.0391L72.3594 47.8633V43.8027L71.4395 43.627V42.6602H73.8301L73.9004 43.4922C74.1074 43.1914 74.3652 42.959 74.6738 42.7949C74.9824 42.627 75.3398 42.543 75.7461 42.543C76.1562 42.543 76.5078 42.6348 76.8008 42.8184C77.0938 43.002 77.3145 43.2773 77.4629 43.6445C77.6582 43.3008 77.9141 43.0312 78.2305 42.8359C78.5469 42.6406 78.916 42.543 79.3379 42.543C79.9707 42.543 80.4688 42.7578 80.832 43.1875C81.1953 43.6172 81.377 44.2695 81.377 45.1445V47.8633L82.2324 48.0391V49H78.998V48.0391L79.7832 47.8633V45.1387C79.7832 44.6348 79.6992 44.2852 79.5312 44.0898C79.3672 43.8906 79.123 43.791 78.7988 43.791C78.5059 43.791 78.2617 43.8809 78.0664 44.0605C77.8711 44.2402 77.7363 44.4707 77.6621 44.752V47.8633L78.4062 48.0391V49H75.3301V48.0391L76.0742 47.8633V45.1387C76.0742 44.6543 75.9902 44.3086 75.8223 44.1016C75.6543 43.8945 75.4082 43.791 75.084 43.791C74.8184 43.791 74.5918 43.8457 74.4043 43.9551C74.2168 44.0605 74.0645 44.2129 73.9473 44.4121V47.8633L74.7324 48.0391V49H71.5039ZM85.7891 49.123C85.168 49.123 84.6367 48.9863 84.1953 48.7129C83.7539 48.4395 83.4141 48.0605 83.1758 47.5762C82.9375 47.0879 82.8184 46.5273 82.8184 45.8945V45.7715C82.8184 45.1426 82.9375 44.5859 83.1758 44.1016C83.4141 43.6172 83.7539 43.2363 84.1953 42.959C84.6367 42.6816 85.1641 42.543 85.7773 42.543C86.3945 42.543 86.9238 42.6816 87.3652 42.959C87.8066 43.2324 88.1445 43.6113 88.3789 44.0957C88.6172 44.5801 88.7363 45.1387 88.7363 45.7715V45.8945C88.7363 46.5273 88.6172 47.0879 88.3789 47.5762C88.1445 48.0605 87.8066 48.4395 87.3652 48.7129C86.9238 48.9863 86.3984 49.123 85.7891 49.123ZM85.7891 47.8984C86.0977 47.8984 86.3516 47.8145 86.5508 47.6465C86.7539 47.4785 86.9043 47.2441 87.002 46.9434C87.0996 46.6387 87.1484 46.2891 87.1484 45.8945V45.7715C87.1484 45.3809 87.0996 45.0352 87.002 44.7344C86.9043 44.4336 86.7539 44.1992 86.5508 44.0312C86.3477 43.8594 86.0898 43.7734 85.7773 43.7734C85.4648 43.7734 85.207 43.8594 85.0039 44.0312C84.8047 44.1992 84.6562 44.4336 84.5586 44.7344C84.4609 45.0352 84.4121 45.3809 84.4121 45.7715V45.8945C84.4121 46.293 84.4609 46.6426 84.5586 46.9434C84.6562 47.2441 84.8066 47.4785 85.0098 47.6465C85.2129 47.8145 85.4727 47.8984 85.7891 47.8984Z" fill="white"/>
</g>
<defs>
<filter id="filter0_dd_103_560" x="0" y="20" width="120" height="51" filterUnits="userSpaceOnUse" color-interpolation-filters="sRGB">
<feFlood flood-opacity="0" result="BackgroundImageFix"/>
<feColorMatrix in="SourceAlpha" type="matrix" values="0 0 0 0 0 0 0 0 0 0 0 0 0 0 0 0 0 0 127 0" result="hardAlpha"/>
<feOffset dy="2"/>
<feGaussianBlur stdDeviation="2.5"/>
<feColorMatrix type="matrix" values="0 0 0 0 0 0 0 0 0 0 0 0 0 0 0 0 0 0 0.14 0"/>
<feBlend mode="normal" in2="BackgroundImageFix" result="effect1_dropShadow_103_560"/>
<feColorMatrix in="SourceAlpha" type="matrix" values="0 0 0 0 0 0 0 0 0 0 0 0 0 0 0 0 0 0 127 0" result="hardAlpha"/>
<feOffset dy="1"/>
<feGaussianBlur stdDeviation="2.5"/>
<feColorMatrix type="matrix" values="0 0 0 0 0 0 0 0 0 0 0 0 0 0 0 0 0 0 0.12 0"/>
<feBlend mode="normal" in2="effect1_dropShadow_103_560" result="effect2_dropShadow_103_560"/>
<feBlend mode="normal" in="SourceGraphic" in2="effect2_dropShadow_103_560" result="shape"/>
</filter>
</defs>
</svg>
