<svg width="120" height="62" viewBox="0 0 120 62" fill="none" xmlns="http://www.w3.org/2000/svg">
<g filter="url(#filter0_dd_103_560)">
<path d="M5 19C5 14.5817 8.58172 11 13 11H107C111.418 11 115 14.5817 115 19V43C115 47.4183 111.418 51 107 51H13C8.58172 51 5 47.4183 5 43V19Z" fill="#2F80ED"/>
<path d="M30.8574 36V35.0391L31.7773 34.8633V28.6113L30.8574 28.4355V27.4688H31.7773H33.3711H34.3848V28.4355L33.3711 28.6113V34.7812H35.9082L36.002 33.5098H37.2207V36H30.8574ZM37.877 36V35.0391L38.7266 34.8633V30.8027L37.8066 30.627V29.6602H40.3203V34.8633L41.1699 35.0391V36H37.877ZM38.668 28.2715V26.8594H40.3203V28.2715H38.668ZM44.2109 36L42.2246 30.7324L41.5449 30.627V29.6602H44.5332V30.627L43.8359 30.7441L44.8848 33.7734L45.0312 34.2715H45.0664L45.2363 33.7734L46.3379 30.7441L45.5469 30.627V29.6602H48.5293V30.627L47.832 30.7441L45.7988 36H44.2109ZM51.9219 36.123C51.3203 36.123 50.7949 35.9902 50.3457 35.7246C49.9004 35.4551 49.5547 35.0859 49.3086 34.6172C49.0625 34.1445 48.9395 33.6055 48.9395 33V32.7598C48.9395 32.1387 49.0566 31.5859 49.291 31.1016C49.5293 30.6133 49.8613 30.2324 50.2871 29.959C50.7129 29.6816 51.2051 29.543 51.7637 29.543C52.3379 29.543 52.8203 29.6582 53.2109 29.8887C53.6016 30.1152 53.8965 30.4414 54.0957 30.8672C54.2949 31.293 54.3945 31.8047 54.3945 32.4023V33.2871H50.5918L50.5801 33.3223C50.5957 33.627 50.6641 33.8984 50.7852 34.1367C50.9062 34.3711 51.0762 34.5566 51.2949 34.6934C51.5137 34.8301 51.7793 34.8984 52.0918 34.8984C52.4238 34.8984 52.7266 34.8555 53 34.7695C53.2773 34.6836 53.541 34.5566 53.791 34.3887L54.248 35.3789C53.9941 35.5898 53.6719 35.7676 53.2812 35.9121C52.8906 36.0527 52.4375 36.123 51.9219 36.123ZM50.6094 32.2031H52.8945V32.0508C52.8945 31.7852 52.8555 31.5547 52.7773 31.3594C52.6992 31.1602 52.5781 31.0059 52.4141 30.8965C52.2539 30.7871 52.0449 30.7324 51.7871 30.7324C51.5527 30.7324 51.3516 30.7969 51.1836 30.9258C51.0156 31.0508 50.8828 31.2227 50.7852 31.4414C50.6875 31.6562 50.623 31.9004 50.5918 32.1738L50.6094 32.2031ZM60.6113 36.123C60.1074 36.123 59.6738 35.9941 59.3105 35.7363C58.9473 35.4785 58.668 35.1172 58.4727 34.6523C58.2812 34.1836 58.1855 33.6387 58.1855 33.0176V32.8945C58.1855 32.2266 58.2812 31.6406 58.4727 31.1367C58.668 30.6328 58.9473 30.2422 59.3105 29.9648C59.6738 29.6836 60.1055 29.543 60.6055 29.543C60.9648 29.543 61.2773 29.6133 61.543 29.7539C61.8086 29.8906 62.0371 30.0879 62.2285 30.3457V28.002L61.3086 27.8262V26.8594H62.2285H63.8223V34.8633L64.6719 35.0391V36H62.4453L62.3223 35.2324C62.123 35.5254 61.8828 35.748 61.6016 35.9004C61.3203 36.0488 60.9902 36.123 60.6113 36.123ZM61.0742 34.875C61.3359 34.875 61.5625 34.8184 61.7539 34.7051C61.9453 34.5918 62.1035 34.4297 62.2285 34.2188V31.4766C62.1074 31.2617 61.9512 31.0938 61.7598 30.9727C61.5684 30.8516 61.3438 30.791 61.0859 30.791C60.7852 30.791 60.5371 30.8809 60.3418 31.0605C60.1504 31.2363 60.0078 31.4824 59.9141 31.7988C59.8242 32.1113 59.7793 32.4766 59.7793 32.8945V33.0176C59.7793 33.5918 59.8809 34.0449 60.084 34.377C60.2871 34.709 60.6172 34.875 61.0742 34.875ZM68.2695 36.123C67.668 36.123 67.1426 35.9902 66.6934 35.7246C66.248 35.4551 65.9023 35.0859 65.6562 34.6172C65.4102 34.1445 65.2871 33.6055 65.2871 33V32.7598C65.2871 32.1387 65.4043 31.5859 65.6387 31.1016C65.877 30.6133 66.209 30.2324 66.6348 29.959C67.0605 29.6816 67.5527 29.543 68.1113 29.543C68.6855 29.543 69.168 29.6582 69.5586 29.8887C69.9492 30.1152 70.2441 30.4414 70.4434 30.8672C70.6426 31.293 70.7422 31.8047 70.7422 32.4023V33.2871H66.9395L66.9277 33.3223C66.9434 33.627 67.0117 33.8984 67.1328 34.1367C67.2539 34.3711 67.4238 34.5566 67.6426 34.6934C67.8613 34.8301 68.127 34.8984 68.4395 34.8984C68.7715 34.8984 69.0742 34.8555 69.3477 34.7695C69.625 34.6836 69.8887 34.5566 70.1387 34.3887L70.5957 35.3789C70.3418 35.5898 70.0195 35.7676 69.6289 35.9121C69.2383 36.0527 68.7852 36.123 68.2695 36.123ZM66.957 32.2031H69.2422V32.0508C69.2422 31.7852 69.2031 31.5547 69.125 31.3594C69.0469 31.1602 68.9258 31.0059 68.7617 30.8965C68.6016 30.7871 68.3926 30.7324 68.1348 30.7324C67.9004 30.7324 67.6992 30.7969 67.5312 30.9258C67.3633 31.0508 67.2305 31.2227 67.1328 31.4414C67.0352 31.6562 66.9707 31.9004 66.9395 32.1738L66.957 32.2031ZM71.5039 36V35.0391L72.3594 34.8633V30.8027L71.4395 30.627V29.6602H73.8301L73.9004 30.4922C74.1074 30.1914 74.3652 29.959 74.6738 29.7949C74.9824 29.627 75.3398 29.543 75.7461 29.543C76.1562 29.543 76.5078 29.6348 76.8008 29.8184C77.0938 30.002 77.3145 30.2773 77.4629 30.6445C77.6582 30.3008 77.9141 30.0312 78.2305 29.8359C78.5469 29.6406 78.916 29.543 79.3379 29.543C79.9707 29.543 80.4688 29.7578 80.832 30.1875C81.1953 30.6172 81.377 31.2695 81.377 32.1445V34.8633L82.2324 35.0391V36H78.998V35.0391L79.7832 34.8633V32.1387C79.7832 31.6348 79.6992 31.2852 79.5312 31.0898C79.3672 30.8906 79.123 30.791 78.7988 30.791C78.5059 30.791 78.2617 30.8809 78.0664 31.0605C77.8711 31.2402 77.7363 31.4707 77.6621 31.752V34.8633L78.4062 35.0391V36H75.3301V35.0391L76.0742 34.8633V32.1387C76.0742 31.6543 75.9902 31.3086 75.8223 31.1016C75.6543 30.8945 75.4082 30.791 75.084 30.791C74.8184 30.791 74.5918 30.8457 74.4043 30.9551C74.2168 31.0605 74.0645 31.2129 73.9473 31.4121V34.8633L74.7324 35.0391V36H71.5039ZM85.7891 36.123C85.168 36.123 84.6367 35.9863 84.1953 35.7129C83.7539 35.4395 83.4141 35.0605 83.1758 34.5762C82.9375 34.0879 82.8184 33.5273 82.8184 32.8945V32.7715C82.8184 32.1426 82.9375 31.5859 83.1758 31.1016C83.4141 30.6172 83.7539 30.2363 84.1953 29.959C84.6367 29.6816 85.1641 29.543 85.7773 29.543C86.3945 29.543 86.9238 29.6816 87.3652 29.959C87.8066 30.2324 88.1445 30.6113 88.3789 31.0957C88.6172 31.5801 88.7363 32.1387 88.7363 32.7715V32.8945C88.7363 33.5273 88.6172 34.0879 88.3789 34.5762C88.1445 35.0605 87.8066 35.4395 87.3652 35.7129C86.9238 35.9863 86.3984 36.123 85.7891 36.123ZM85.7891 34.8984C86.0977 34.8984 86.3516 34.8145 86.5508 34.6465C86.7539 34.4785 86.9043 34.2441 87.002 33.9434C87.0996 33.6387 87.1484 33.2891 87.1484 32.8945V32.7715C87.1484 32.3809 87.0996 32.0352 87.002 31.7344C86.9043 31.4336 86.7539 31.1992 86.5508 31.0312C86.3477 30.8594 86.0898 30.7734 85.7773 30.7734C85.4648 30.7734 85.207 30.8594 85.0039 31.0312C84.8047 31.1992 84.6562 31.4336 84.5586 31.7344C84.4609 32.0352 84.4121 32.3809 84.4121 32.7715V32.8945C84.4121 33.293 84.4609 33.6426 84.5586 33.9434C84.6562 34.2441 84.8066 34.4785 85.0098 34.6465C85.2129 34.8145 85.4727 34.8984 85.7891 34.8984Z" fill="white"/>
</g>
<defs>
<filter id="filter0_dd_103_560" x="0" y="7" width="120" height="51" filterUnits="userSpaceOnUse" color-interpolation-filters="sRGB">
<feFlood flood-opacity="0" result="BackgroundImageFix"/>
<feColorMatrix in="SourceAlpha" type="matrix" values="0 0 0 0 0 0 0 0 0 0 0 0 0 0 0 0 0 0 127 0" result="hardAlpha"/>
<feOffset dy="2"/>
<feGaussianBlur stdDeviation="2.5"/>
<feColorMatrix type="matrix" values="0 0 0 0 0 0 0 0 0 0 0 0 0 0 0 0 0 0 0.14 0"/>
<feBlend mode="normal" in2="BackgroundImageFix" result="effect1_dropShadow_103_560"/>
<feColorMatrix in="SourceAlpha" type="matrix" values="0 0 0 0 0 0 0 0 0 0 0 0 0 0 0 0 0 0 127 0" result="hardAlpha"/>
<feOffset dy="1"/>
<feGaussianBlur stdDeviation="2.5"/>
<feColorMatrix type="matrix" values="0 0 0 0 0 0 0 0 0 0 0 0 0 0 0 0 0 0 0.12 0"/>
<feBlend mode="normal" in2="effect1_dropShadow_103_560" result="effect2_dropShadow_103_560"/>
<feBlend mode="normal" in="SourceGraphic" in2="effect2_dropShadow_103_560" result="shape"/>
</filter>
</defs>
</svg>
