<svg width="120" height="128" viewBox="0 0 120 128" fill="none" xmlns="http://www.w3.org/2000/svg">
<g filter="url(#filter0_dd_103_560)">
<path d="M5 52C5 47.5817 8.58172 44 13 44H107C111.418 44 115 47.5817 115 52V76C115 80.4183 111.418 84 107 84H13C8.58172 84 5 80.4183 5 76V52Z" fill="#2F80ED"/>
<path d="M30.8574 69V68.0391L31.7773 67.8633V61.6113L30.8574 61.4355V60.4688H31.7773H33.3711H34.3848V61.4355L33.3711 61.6113V67.7812H35.9082L36.002 66.5098H37.2207V69H30.8574ZM37.877 69V68.0391L38.7266 67.8633V63.8027L37.8066 63.627V62.6602H40.3203V67.8633L41.1699 68.0391V69H37.877ZM38.668 61.2715V59.8594H40.3203V61.2715H38.668ZM44.2109 69L42.2246 63.7324L41.5449 63.627V62.6602H44.5332V63.627L43.8359 63.7441L44.8848 66.7734L45.0312 67.2715H45.0664L45.2363 66.7734L46.3379 63.7441L45.5469 63.627V62.6602H48.5293V63.627L47.832 63.7441L45.7988 69H44.2109ZM51.9219 69.123C51.3203 69.123 50.7949 68.9902 50.3457 68.7246C49.9004 68.4551 49.5547 68.0859 49.3086 67.6172C49.0625 67.1445 48.9395 66.6055 48.9395 66V65.7598C48.9395 65.1387 49.0566 64.5859 49.291 64.1016C49.5293 63.6133 49.8613 63.2324 50.2871 62.959C50.7129 62.6816 51.2051 62.543 51.7637 62.543C52.3379 62.543 52.8203 62.6582 53.2109 62.8887C53.6016 63.1152 53.8965 63.4414 54.0957 63.8672C54.2949 64.293 54.3945 64.8047 54.3945 65.4023V66.2871H50.5918L50.5801 66.3223C50.5957 66.627 50.6641 66.8984 50.7852 67.1367C50.9062 67.3711 51.0762 67.5566 51.2949 67.6934C51.5137 67.8301 51.7793 67.8984 52.0918 67.8984C52.4238 67.8984 52.7266 67.8555 53 67.7695C53.2773 67.6836 53.541 67.5566 53.791 67.3887L54.248 68.3789C53.9941 68.5898 53.6719 68.7676 53.2812 68.9121C52.8906 69.0527 52.4375 69.123 51.9219 69.123ZM50.6094 65.2031H52.8945V65.0508C52.8945 64.7852 52.8555 64.5547 52.7773 64.3594C52.6992 64.1602 52.5781 64.0059 52.4141 63.8965C52.2539 63.7871 52.0449 63.7324 51.7871 63.7324C51.5527 63.7324 51.3516 63.7969 51.1836 63.9258C51.0156 64.0508 50.8828 64.2227 50.7852 64.4414C50.6875 64.6562 50.623 64.9004 50.5918 65.1738L50.6094 65.2031ZM60.6113 69.123C60.1074 69.123 59.6738 68.9941 59.3105 68.7363C58.9473 68.4785 58.668 68.1172 58.4727 67.6523C58.2812 67.1836 58.1855 66.6387 58.1855 66.0176V65.8945C58.1855 65.2266 58.2812 64.6406 58.4727 64.1367C58.668 63.6328 58.9473 63.2422 59.3105 62.9648C59.6738 62.6836 60.1055 62.543 60.6055 62.543C60.9648 62.543 61.2773 62.6133 61.543 62.7539C61.8086 62.8906 62.0371 63.0879 62.2285 63.3457V61.002L61.3086 60.8262V59.8594H62.2285H63.8223V67.8633L64.6719 68.0391V69H62.4453L62.3223 68.2324C62.123 68.5254 61.8828 68.748 61.6016 68.9004C61.3203 69.0488 60.9902 69.123 60.6113 69.123ZM61.0742 67.875C61.3359 67.875 61.5625 67.8184 61.7539 67.7051C61.9453 67.5918 62.1035 67.4297 62.2285 67.2188V64.4766C62.1074 64.2617 61.9512 64.0938 61.7598 63.9727C61.5684 63.8516 61.3438 63.791 61.0859 63.791C60.7852 63.791 60.5371 63.8809 60.3418 64.0605C60.1504 64.2363 60.0078 64.4824 59.9141 64.7988C59.8242 65.1113 59.7793 65.4766 59.7793 65.8945V66.0176C59.7793 66.5918 59.8809 67.0449 60.084 67.377C60.2871 67.709 60.6172 67.875 61.0742 67.875ZM68.2695 69.123C67.668 69.123 67.1426 68.9902 66.6934 68.7246C66.248 68.4551 65.9023 68.0859 65.6562 67.6172C65.4102 67.1445 65.2871 66.6055 65.2871 66V65.7598C65.2871 65.1387 65.4043 64.5859 65.6387 64.1016C65.877 63.6133 66.209 63.2324 66.6348 62.959C67.0605 62.6816 67.5527 62.543 68.1113 62.543C68.6855 62.543 69.168 62.6582 69.5586 62.8887C69.9492 63.1152 70.2441 63.4414 70.4434 63.8672C70.6426 64.293 70.7422 64.8047 70.7422 65.4023V66.2871H66.9395L66.9277 66.3223C66.9434 66.627 67.0117 66.8984 67.1328 67.1367C67.2539 67.3711 67.4238 67.5566 67.6426 67.6934C67.8613 67.8301 68.127 67.8984 68.4395 67.8984C68.7715 67.8984 69.0742 67.8555 69.3477 67.7695C69.625 67.6836 69.8887 67.5566 70.1387 67.3887L70.5957 68.3789C70.3418 68.5898 70.0195 68.7676 69.6289 68.9121C69.2383 69.0527 68.7852 69.123 68.2695 69.123ZM66.957 65.2031H69.2422V65.0508C69.2422 64.7852 69.2031 64.5547 69.125 64.3594C69.0469 64.1602 68.9258 64.0059 68.7617 63.8965C68.6016 63.7871 68.3926 63.7324 68.1348 63.7324C67.9004 63.7324 67.6992 63.7969 67.5312 63.9258C67.3633 64.0508 67.2305 64.2227 67.1328 64.4414C67.0352 64.6562 66.9707 64.9004 66.9395 65.1738L66.957 65.2031ZM71.5039 69V68.0391L72.3594 67.8633V63.8027L71.4395 63.627V62.6602H73.8301L73.9004 63.4922C74.1074 63.1914 74.3652 62.959 74.6738 62.7949C74.9824 62.627 75.3398 62.543 75.7461 62.543C76.1562 62.543 76.5078 62.6348 76.8008 62.8184C77.0938 63.002 77.3145 63.2773 77.4629 63.6445C77.6582 63.3008 77.9141 63.0312 78.2305 62.8359C78.5469 62.6406 78.916 62.543 79.3379 62.543C79.9707 62.543 80.4688 62.7578 80.832 63.1875C81.1953 63.6172 81.377 64.2695 81.377 65.1445V67.8633L82.2324 68.0391V69H78.998V68.0391L79.7832 67.8633V65.1387C79.7832 64.6348 79.6992 64.2852 79.5312 64.0898C79.3672 63.8906 79.123 63.791 78.7988 63.791C78.5059 63.791 78.2617 63.8809 78.0664 64.0605C77.8711 64.2402 77.7363 64.4707 77.6621 64.752V67.8633L78.4062 68.0391V69H75.3301V68.0391L76.0742 67.8633V65.1387C76.0742 64.6543 75.9902 64.3086 75.8223 64.1016C75.6543 63.8945 75.4082 63.791 75.084 63.791C74.8184 63.791 74.5918 63.8457 74.4043 63.9551C74.2168 64.0605 74.0645 64.2129 73.9473 64.4121V67.8633L74.7324 68.0391V69H71.5039ZM85.7891 69.123C85.168 69.123 84.6367 68.9863 84.1953 68.7129C83.7539 68.4395 83.4141 68.0605 83.1758 67.5762C82.9375 67.0879 82.8184 66.5273 82.8184 65.8945V65.7715C82.8184 65.1426 82.9375 64.5859 83.1758 64.1016C83.4141 63.6172 83.7539 63.2363 84.1953 62.959C84.6367 62.6816 85.1641 62.543 85.7773 62.543C86.3945 62.543 86.9238 62.6816 87.3652 62.959C87.8066 63.2324 88.1445 63.6113 88.3789 64.0957C88.6172 64.5801 88.7363 65.1387 88.7363 65.7715V65.8945C88.7363 66.5273 88.6172 67.0879 88.3789 67.5762C88.1445 68.0605 87.8066 68.4395 87.3652 68.7129C86.9238 68.9863 86.3984 69.123 85.7891 69.123ZM85.7891 67.8984C86.0977 67.8984 86.3516 67.8145 86.5508 67.6465C86.7539 67.4785 86.9043 67.2441 87.002 66.9434C87.0996 66.6387 87.1484 66.2891 87.1484 65.8945V65.7715C87.1484 65.3809 87.0996 65.0352 87.002 64.7344C86.9043 64.4336 86.7539 64.1992 86.5508 64.0312C86.3477 63.8594 86.0898 63.7734 85.7773 63.7734C85.4648 63.7734 85.207 63.8594 85.0039 64.0312C84.8047 64.1992 84.6562 64.4336 84.5586 64.7344C84.4609 65.0352 84.4121 65.3809 84.4121 65.7715V65.8945C84.4121 66.293 84.4609 66.6426 84.5586 66.9434C84.6562 67.2441 84.8066 67.4785 85.0098 67.6465C85.2129 67.8145 85.4727 67.8984 85.7891 67.8984Z" fill="white"/>
</g>
<defs>
<filter id="filter0_dd_103_560" x="0" y="40" width="120" height="51" filterUnits="userSpaceOnUse" color-interpolation-filters="sRGB">
<feFlood flood-opacity="0" result="BackgroundImageFix"/>
<feColorMatrix in="SourceAlpha" type="matrix" values="0 0 0 0 0 0 0 0 0 0 0 0 0 0 0 0 0 0 127 0" result="hardAlpha"/>
<feOffset dy="2"/>
<feGaussianBlur stdDeviation="2.5"/>
<feColorMatrix type="matrix" values="0 0 0 0 0 0 0 0 0 0 0 0 0 0 0 0 0 0 0.14 0"/>
<feBlend mode="normal" in2="BackgroundImageFix" result="effect1_dropShadow_103_560"/>
<feColorMatrix in="SourceAlpha" type="matrix" values="0 0 0 0 0 0 0 0 0 0 0 0 0 0 0 0 0 0 127 0" result="hardAlpha"/>
<feOffset dy="1"/>
<feGaussianBlur stdDeviation="2.5"/>
<feColorMatrix type="matrix" values="0 0 0 0 0 0 0 0 0 0 0 0 0 0 0 0 0 0 0.12 0"/>
<feBlend mode="normal" in2="effect1_dropShadow_103_560" result="effect2_dropShadow_103_560"/>
<feBlend mode="normal" in="SourceGraphic" in2="effect2_dropShadow_103_560" result="shape"/>
</filter>
</defs>
</svg>
