<svg width="110" height="51" viewBox="0 0 110 51" fill="none" xmlns="http://www.w3.org/2000/svg">
<g filter="url(#filter0_dd_101_542)">
<path d="M5 12C5 7.58172 8.58172 4 13 4H97C101.418 4 105 7.58172 105 12V36C105 40.4183 101.418 44 97 44H13C8.58172 44 5 40.4183 5 36V12Z" fill="#2F80ED"/>
<path d="M25.8574 29V28.0391L26.7773 27.8633V21.6113L25.8574 21.4355V20.4688H26.7773H28.3711H29.3848V21.4355L28.3711 21.6113V27.7812H30.9082L31.002 26.5098H32.2207V29H25.8574ZM32.877 29V28.0391L33.7266 27.8633V23.8027L32.8066 23.627V22.6602H35.3203V27.8633L36.1699 28.0391V29H32.877ZM33.668 21.2715V19.8594H35.3203V21.2715H33.668ZM39.2109 29L37.2246 23.7324L36.5449 23.627V22.6602H39.5332V23.627L38.8359 23.7441L39.8848 26.7734L40.0312 27.2715H40.0664L40.2363 26.7734L41.3379 23.7441L40.5469 23.627V22.6602H43.5293V23.627L42.832 23.7441L40.7988 29H39.2109ZM46.9219 29.123C46.3203 29.123 45.7949 28.9902 45.3457 28.7246C44.9004 28.4551 44.5547 28.0859 44.3086 27.6172C44.0625 27.1445 43.9395 26.6055 43.9395 26V25.7598C43.9395 25.1387 44.0566 24.5859 44.291 24.1016C44.5293 23.6133 44.8613 23.2324 45.2871 22.959C45.7129 22.6816 46.2051 22.543 46.7637 22.543C47.3379 22.543 47.8203 22.6582 48.2109 22.8887C48.6016 23.1152 48.8965 23.4414 49.0957 23.8672C49.2949 24.293 49.3945 24.8047 49.3945 25.4023V26.2871H45.5918L45.5801 26.3223C45.5957 26.627 45.6641 26.8984 45.7852 27.1367C45.9062 27.3711 46.0762 27.5566 46.2949 27.6934C46.5137 27.8301 46.7793 27.8984 47.0918 27.8984C47.4238 27.8984 47.7266 27.8555 48 27.7695C48.2773 27.6836 48.541 27.5566 48.791 27.3887L49.248 28.3789C48.9941 28.5898 48.6719 28.7676 48.2812 28.9121C47.8906 29.0527 47.4375 29.123 46.9219 29.123ZM45.6094 25.2031H47.8945V25.0508C47.8945 24.7852 47.8555 24.5547 47.7773 24.3594C47.6992 24.1602 47.5781 24.0059 47.4141 23.8965C47.2539 23.7871 47.0449 23.7324 46.7871 23.7324C46.5527 23.7324 46.3516 23.7969 46.1836 23.9258C46.0156 24.0508 45.8828 24.2227 45.7852 24.4414C45.6875 24.6562 45.623 24.9004 45.5918 25.1738L45.6094 25.2031ZM55.6113 29.123C55.1074 29.123 54.6738 28.9941 54.3105 28.7363C53.9473 28.4785 53.668 28.1172 53.4727 27.6523C53.2812 27.1836 53.1855 26.6387 53.1855 26.0176V25.8945C53.1855 25.2266 53.2812 24.6406 53.4727 24.1367C53.668 23.6328 53.9473 23.2422 54.3105 22.9648C54.6738 22.6836 55.1055 22.543 55.6055 22.543C55.9648 22.543 56.2773 22.6133 56.543 22.7539C56.8086 22.8906 57.0371 23.0879 57.2285 23.3457V21.002L56.3086 20.8262V19.8594H57.2285H58.8223V27.8633L59.6719 28.0391V29H57.4453L57.3223 28.2324C57.123 28.5254 56.8828 28.748 56.6016 28.9004C56.3203 29.0488 55.9902 29.123 55.6113 29.123ZM56.0742 27.875C56.3359 27.875 56.5625 27.8184 56.7539 27.7051C56.9453 27.5918 57.1035 27.4297 57.2285 27.2188V24.4766C57.1074 24.2617 56.9512 24.0938 56.7598 23.9727C56.5684 23.8516 56.3438 23.791 56.0859 23.791C55.7852 23.791 55.5371 23.8809 55.3418 24.0605C55.1504 24.2363 55.0078 24.4824 54.9141 24.7988C54.8242 25.1113 54.7793 25.4766 54.7793 25.8945V26.0176C54.7793 26.5918 54.8809 27.0449 55.084 27.377C55.2871 27.709 55.6172 27.875 56.0742 27.875ZM63.2695 29.123C62.668 29.123 62.1426 28.9902 61.6934 28.7246C61.248 28.4551 60.9023 28.0859 60.6562 27.6172C60.4102 27.1445 60.2871 26.6055 60.2871 26V25.7598C60.2871 25.1387 60.4043 24.5859 60.6387 24.1016C60.877 23.6133 61.209 23.2324 61.6348 22.959C62.0605 22.6816 62.5527 22.543 63.1113 22.543C63.6855 22.543 64.168 22.6582 64.5586 22.8887C64.9492 23.1152 65.2441 23.4414 65.4434 23.8672C65.6426 24.293 65.7422 24.8047 65.7422 25.4023V26.2871H61.9395L61.9277 26.3223C61.9434 26.627 62.0117 26.8984 62.1328 27.1367C62.2539 27.3711 62.4238 27.5566 62.6426 27.6934C62.8613 27.8301 63.127 27.8984 63.4395 27.8984C63.7715 27.8984 64.0742 27.8555 64.3477 27.7695C64.625 27.6836 64.8887 27.5566 65.1387 27.3887L65.5957 28.3789C65.3418 28.5898 65.0195 28.7676 64.6289 28.9121C64.2383 29.0527 63.7852 29.123 63.2695 29.123ZM61.957 25.2031H64.2422V25.0508C64.2422 24.7852 64.2031 24.5547 64.125 24.3594C64.0469 24.1602 63.9258 24.0059 63.7617 23.8965C63.6016 23.7871 63.3926 23.7324 63.1348 23.7324C62.9004 23.7324 62.6992 23.7969 62.5312 23.9258C62.3633 24.0508 62.2305 24.2227 62.1328 24.4414C62.0352 24.6562 61.9707 24.9004 61.9395 25.1738L61.957 25.2031ZM66.5039 29V28.0391L67.3594 27.8633V23.8027L66.4395 23.627V22.6602H68.8301L68.9004 23.4922C69.1074 23.1914 69.3652 22.959 69.6738 22.7949C69.9824 22.627 70.3398 22.543 70.7461 22.543C71.1562 22.543 71.5078 22.6348 71.8008 22.8184C72.0938 23.002 72.3145 23.2773 72.4629 23.6445C72.6582 23.3008 72.9141 23.0312 73.2305 22.8359C73.5469 22.6406 73.916 22.543 74.3379 22.543C74.9707 22.543 75.4688 22.7578 75.832 23.1875C76.1953 23.6172 76.377 24.2695 76.377 25.1445V27.8633L77.2324 28.0391V29H73.998V28.0391L74.7832 27.8633V25.1387C74.7832 24.6348 74.6992 24.2852 74.5312 24.0898C74.3672 23.8906 74.123 23.791 73.7988 23.791C73.5059 23.791 73.2617 23.8809 73.0664 24.0605C72.8711 24.2402 72.7363 24.4707 72.6621 24.752V27.8633L73.4062 28.0391V29H70.3301V28.0391L71.0742 27.8633V25.1387C71.0742 24.6543 70.9902 24.3086 70.8223 24.1016C70.6543 23.8945 70.4082 23.791 70.084 23.791C69.8184 23.791 69.5918 23.8457 69.4043 23.9551C69.2168 24.0605 69.0645 24.2129 68.9473 24.4121V27.8633L69.7324 28.0391V29H66.5039ZM80.7891 29.123C80.168 29.123 79.6367 28.9863 79.1953 28.7129C78.7539 28.4395 78.4141 28.0605 78.1758 27.5762C77.9375 27.0879 77.8184 26.5273 77.8184 25.8945V25.7715C77.8184 25.1426 77.9375 24.5859 78.1758 24.1016C78.4141 23.6172 78.7539 23.2363 79.1953 22.959C79.6367 22.6816 80.1641 22.543 80.7773 22.543C81.3945 22.543 81.9238 22.6816 82.3652 22.959C82.8066 23.2324 83.1445 23.6113 83.3789 24.0957C83.6172 24.5801 83.7363 25.1387 83.7363 25.7715V25.8945C83.7363 26.5273 83.6172 27.0879 83.3789 27.5762C83.1445 28.0605 82.8066 28.4395 82.3652 28.7129C81.9238 28.9863 81.3984 29.123 80.7891 29.123ZM80.7891 27.8984C81.0977 27.8984 81.3516 27.8145 81.5508 27.6465C81.7539 27.4785 81.9043 27.2441 82.002 26.9434C82.0996 26.6387 82.1484 26.2891 82.1484 25.8945V25.7715C82.1484 25.3809 82.0996 25.0352 82.002 24.7344C81.9043 24.4336 81.7539 24.1992 81.5508 24.0312C81.3477 23.8594 81.0898 23.7734 80.7773 23.7734C80.4648 23.7734 80.207 23.8594 80.0039 24.0312C79.8047 24.1992 79.6562 24.4336 79.5586 24.7344C79.4609 25.0352 79.4121 25.3809 79.4121 25.7715V25.8945C79.4121 26.293 79.4609 26.6426 79.5586 26.9434C79.6562 27.2441 79.8066 27.4785 80.0098 27.6465C80.2129 27.8145 80.4727 27.8984 80.7891 27.8984Z" fill="white"/>
</g>
<defs>
<filter id="filter0_dd_101_542" x="0" y="0" width="110" height="51" filterUnits="userSpaceOnUse" color-interpolation-filters="sRGB">
<feFlood flood-opacity="0" result="BackgroundImageFix"/>
<feColorMatrix in="SourceAlpha" type="matrix" values="0 0 0 0 0 0 0 0 0 0 0 0 0 0 0 0 0 0 127 0" result="hardAlpha"/>
<feOffset dy="2"/>
<feGaussianBlur stdDeviation="2.5"/>
<feColorMatrix type="matrix" values="0 0 0 0 0 0 0 0 0 0 0 0 0 0 0 0 0 0 0.14 0"/>
<feBlend mode="normal" in2="BackgroundImageFix" result="effect1_dropShadow_101_542"/>
<feColorMatrix in="SourceAlpha" type="matrix" values="0 0 0 0 0 0 0 0 0 0 0 0 0 0 0 0 0 0 127 0" result="hardAlpha"/>
<feOffset dy="1"/>
<feGaussianBlur stdDeviation="2.5"/>
<feColorMatrix type="matrix" values="0 0 0 0 0 0 0 0 0 0 0 0 0 0 0 0 0 0 0.12 0"/>
<feBlend mode="normal" in2="effect1_dropShadow_101_542" result="effect2_dropShadow_101_542"/>
<feBlend mode="normal" in="SourceGraphic" in2="effect2_dropShadow_101_542" result="shape"/>
</filter>
</defs>
</svg>
